<svg width="32" height="32" viewBox="0 0 32 32" fill="none" xmlns="http://www.w3.org/2000/svg">
<path d="M24.6631 3.99806V0L4.67188 3.99806V31.9854V32L4.72756 31.9854H27.3281V3.99806H24.6631ZM23.3301 1.626V3.99806H11.4677L23.3301 1.626ZM6.00488 30.6524V5.33106H25.9961V30.6524H6.00488Z" fill="black"/>
<path d="M18.999 18.6582H20.666L16.002 9.3291L11.3379 18.6582H13.002L10.0039 23.9893H14.0029V26.6544H18.001V23.9893H21.998L18.999 18.6582ZM16.0019 12.3096L18.5097 17.3252H13.4941L16.0019 12.3096ZM16.668 25.3214H15.336V23.9894H16.668V25.3214ZM12.2812 22.6563L14.5312 18.6582H17.4706L19.7187 22.6563H12.2812Z" fill="black"/>
</svg>
