<svg width="32" height="32" viewBox="0 0 32 32" fill="none" xmlns="http://www.w3.org/2000/svg">
<g clip-path="url(#clip0)">
<path d="M15.1212 0C11.3263 0.210438 7.58995 1.76513 4.6897 4.66506C-1.56323 10.9184 -1.56323 21.0565 4.6897 27.3098C7.81664 30.4363 11.9142 31.9997 16.0128 31.9997C20.1104 31.9997 24.209 30.4363 27.335 27.3098C30.2344 24.4099 31.79 20.6741 32 16.8783L15.1212 0ZM28.5879 15.3529C27.5626 15.1757 26.5586 14.8886 25.585 14.494C23.7657 13.7558 22.1319 12.6713 20.7305 11.2699C19.2266 9.76656 18.092 8.00338 17.3556 6.02925C17.0372 5.17381 16.8009 4.29981 16.6466 3.41163L28.5879 15.3529ZM18.383 12.0174L23.7091 21.3372H13.0568L18.383 12.0174ZM11.5207 21.3372H8.34983L11.7111 15.7343L13.2541 18.3045L11.5207 21.3372ZM26.3916 26.3665C24.9902 27.7678 23.3565 28.8527 21.5372 29.5906C19.7774 30.3039 17.92 30.6652 16.0128 30.6652C14.1056 30.6652 12.2472 30.3039 10.4885 29.5906C8.66814 28.8527 7.03533 27.7678 5.63395 26.3665C4.23264 24.9646 3.1467 23.3314 2.40939 21.5115C1.69558 19.7527 1.3342 17.8944 1.3342 15.9876C1.3342 14.0804 1.69552 12.2221 2.40939 10.4633C3.1467 8.64344 4.23264 7.01013 5.63395 5.60831C6.93377 4.30806 8.43864 3.27781 10.1056 2.54588C11.5392 1.91644 13.0509 1.52437 14.6115 1.37644L15.129 1.894C15.3077 4.76262 16.255 7.59269 17.9708 10.0487L14.0119 16.9764L11.7111 13.1405L5.99239 22.6717H10.758H17.4298H26.0079L20.3243 12.726C23.1114 15.2689 26.5782 16.6503 30.1055 16.8704L30.624 17.3891C30.4766 18.9486 30.084 20.4612 29.4551 21.8939C28.7227 23.5614 27.6914 25.0662 26.3916 26.3665Z" fill="black"/>
</g>
<defs>
<clipPath id="clip0">
<rect width="32" height="32" fill="white"/>
</clipPath>
</defs>
</svg>
