<svg width="32" height="32" viewBox="0 0 32 32" fill="none" xmlns="http://www.w3.org/2000/svg">
<g clip-path="url(#clip0)">
<path d="M27.2263 32.0002H4.82616C4.65868 32.0002 4.50145 31.9219 4.40062 31.7886C4.29979 31.6545 4.26732 31.4819 4.31371 31.3208L6.44701 23.854C6.5122 23.6248 6.72118 23.4668 6.95946 23.4668H25.0928C25.3313 23.4668 25.5403 23.6248 25.6055 23.854L27.7388 31.3208C27.7847 31.4819 27.7527 31.6545 27.6518 31.7886C27.551 31.9219 27.3938 32.0002 27.2263 32.0002ZM5.53344 30.9336H26.5195L24.6907 24.5337H7.36156L5.53344 30.9336Z" fill="black"/>
<path d="M9.09127 24.5336C8.97995 24.5336 8.86789 24.499 8.77194 24.4269C8.5361 24.2504 8.48874 23.916 8.66525 23.6806C8.68234 23.6579 10.3784 21.3857 11.9472 18.478C13.3974 15.7905 14.3403 12.8679 14.7504 9.7912L15.4968 4.19696C15.5356 3.90472 15.8044 3.70086 16.0957 3.73895C16.3879 3.77777 16.5927 4.04608 16.5537 4.33783L15.8076 9.93182C15.3803 13.1379 14.3969 16.1835 12.8855 18.9848C11.2768 21.9665 9.58883 24.2263 9.51803 24.3207C9.41403 24.4599 9.25338 24.5336 9.09127 24.5336Z" fill="black"/>
<path d="M22.9594 24.5331C22.797 24.5331 22.6371 24.4593 22.5321 24.3197C22.4611 24.2252 20.7731 21.9654 19.1647 18.9835C17.6532 16.1825 16.6703 13.1366 16.2426 9.93078L15.497 4.33678C15.4579 4.04504 15.6632 3.77673 15.955 3.73766C16.2472 3.70104 16.5155 3.90417 16.5538 4.19592L17.2999 9.78991C17.7101 12.8673 18.6537 15.7894 20.1032 18.4769C21.6744 21.389 23.3683 23.6566 23.3854 23.6796C23.5619 23.9149 23.5145 24.2491 23.2787 24.4257C23.1827 24.4984 23.0702 24.5331 22.9594 24.5331Z" fill="black"/>
<path d="M18.6909 24.5332C18.3965 24.5332 18.1577 24.2947 18.1577 23.9998C18.1577 22.8232 17.2007 21.8665 16.0242 21.8665C14.8477 21.8665 13.8909 22.8232 13.8909 23.9998C13.8909 24.2947 13.6521 24.5332 13.3577 24.5332C13.0632 24.5332 12.8242 24.2947 12.8242 23.9998C12.8242 22.2349 14.26 20.7998 16.0242 20.7998C17.7886 20.7998 19.2244 22.2349 19.2244 23.9998C19.2244 24.2947 18.9854 24.5332 18.6909 24.5332Z" fill="black"/>
<path d="M19.2263 15.467H12.8262C12.5317 15.467 12.293 15.2288 12.293 14.9338C12.293 14.6389 12.5317 14.4004 12.8262 14.4004H19.2263C19.5205 14.4004 19.7595 14.6389 19.7595 14.9338C19.7595 15.2288 19.5205 15.467 19.2263 15.467Z" fill="black"/>
<path d="M21.3601 19.7336H10.6934C10.3989 19.7336 10.1602 19.4951 10.1602 19.2002C10.1602 18.9053 10.3989 18.667 10.6934 18.667H21.3601C21.6545 18.667 21.8933 18.9053 21.8933 19.2002C21.8933 19.4951 21.6545 19.7336 21.3601 19.7336Z" fill="black"/>
<path d="M25.2949 25.2444C25.2458 25.2444 25.1963 25.2373 25.1477 25.2234C24.9707 25.1729 24.833 25.0347 24.7822 24.8572L24.6895 24.5334H7.36035L7.26758 24.8572C7.21704 25.0342 7.07886 25.1729 6.90234 25.2234C6.72534 25.2742 6.53491 25.231 6.39844 25.1072C3.36475 22.3787 1.625 18.4763 1.625 14.3999C1.625 6.45972 8.08472 0 16.0249 0C23.9653 0 30.425 6.45972 30.425 14.3999C30.425 18.4763 28.6853 22.3787 25.6516 25.1072C25.5525 25.1968 25.425 25.2444 25.2949 25.2444ZM6.95825 23.4666H25.0916C25.2832 23.4666 25.4561 23.5686 25.5503 23.7275C27.9802 21.2444 29.3584 17.8906 29.3584 14.3999C29.3584 7.0481 23.377 1.06665 16.0249 1.06665C8.6731 1.06665 2.69165 7.0481 2.69165 14.3999C2.69165 17.8906 4.06982 21.2444 6.49976 23.7275C6.59399 23.5686 6.76685 23.4666 6.95825 23.4666Z" fill="black"/>
<path d="M21.8901 29.8662H10.157C8.98022 29.8662 8.02344 28.9094 8.02344 27.7329C8.02344 26.5564 8.98022 25.5996 10.157 25.5996H21.8901C23.0667 25.5996 24.0234 26.5564 24.0234 27.7329C24.0234 28.9094 23.0667 29.8662 21.8901 29.8662ZM10.157 26.6663C9.5686 26.6663 9.09009 27.1445 9.09009 27.7329C9.09009 28.321 9.5686 28.7996 10.157 28.7996H21.8901C22.4785 28.7996 22.9568 28.321 22.9568 27.7329C22.9568 27.1445 22.4785 26.6663 21.8901 26.6663H10.157Z" fill="black"/>
</g>
<defs>
<clipPath id="clip0">
<rect width="32" height="32" fill="white"/>
</clipPath>
</defs>
</svg>
