<svg width="31" height="31" viewBox="0 0 31 31" fill="none" xmlns="http://www.w3.org/2000/svg">
<g clip-path="url(#clip0)">
<mask id="path-1-inside-1" fill="white">
<path d="M30.5908 0.151518C30.3888 -0.0505059 30.0622 -0.0505059 29.8602 0.151518L27.9448 2.06686H15.9149L0.791547 17.3147C0.447435 17.6588 0.257812 18.1171 0.257812 18.6038C0.257812 19.0906 0.447435 19.5489 0.791547 19.893L11.366 30.4674C11.721 30.8224 12.1865 31.0001 12.6531 31.0001C13.1217 31.0001 13.5903 30.8208 13.9494 30.4623L28.6754 15.3384V2.79746L30.5908 0.882109C30.7928 0.680085 30.7928 0.353541 30.5908 0.151518ZM27.6421 14.9189L13.2137 29.7368C12.9057 30.0448 12.4045 30.0448 12.0966 29.7368L1.52214 19.1624C1.21419 18.8544 1.21419 18.3533 1.52369 18.0438L16.3458 3.10023H26.9115L24.4143 5.59737C24.0056 5.32662 23.5174 5.16697 22.9919 5.16697C21.5674 5.16697 20.4085 6.32589 20.4085 7.75039C20.4085 9.17488 21.5674 10.3338 22.9919 10.3338C24.4164 10.3338 25.5753 9.17488 25.5753 7.75039C25.5753 7.22492 25.4157 6.73665 25.1449 6.32796L27.6421 3.83082V14.9189ZM24.542 7.75039C24.542 8.60498 23.8465 9.30044 22.9919 9.30044C22.1373 9.30044 21.4419 8.60498 21.4419 7.75039C21.4419 6.89579 22.1373 6.20034 22.9919 6.20034C23.2306 6.20034 23.4538 6.25924 23.6558 6.35586L22.6266 7.38509C22.4246 7.58712 22.4246 7.91366 22.6266 8.11568C22.7274 8.21644 22.8596 8.26707 22.9919 8.26707C23.1242 8.26707 23.2564 8.21644 23.3572 8.11568L24.3864 7.08645C24.4836 7.28847 24.542 7.51168 24.542 7.75039Z"/>
</mask>
<path d="M30.5908 0.151518C30.3888 -0.0505059 30.0622 -0.0505059 29.8602 0.151518L27.9448 2.06686H15.9149L0.791547 17.3147C0.447435 17.6588 0.257812 18.1171 0.257812 18.6038C0.257812 19.0906 0.447435 19.5489 0.791547 19.893L11.366 30.4674C11.721 30.8224 12.1865 31.0001 12.6531 31.0001C13.1217 31.0001 13.5903 30.8208 13.9494 30.4623L28.6754 15.3384V2.79746L30.5908 0.882109C30.7928 0.680085 30.7928 0.353541 30.5908 0.151518ZM27.6421 14.9189L13.2137 29.7368C12.9057 30.0448 12.4045 30.0448 12.0966 29.7368L1.52214 19.1624C1.21419 18.8544 1.21419 18.3533 1.52369 18.0438L16.3458 3.10023H26.9115L24.4143 5.59737C24.0056 5.32662 23.5174 5.16697 22.9919 5.16697C21.5674 5.16697 20.4085 6.32589 20.4085 7.75039C20.4085 9.17488 21.5674 10.3338 22.9919 10.3338C24.4164 10.3338 25.5753 9.17488 25.5753 7.75039C25.5753 7.22492 25.4157 6.73665 25.1449 6.32796L27.6421 3.83082V14.9189ZM24.542 7.75039C24.542 8.60498 23.8465 9.30044 22.9919 9.30044C22.1373 9.30044 21.4419 8.60498 21.4419 7.75039C21.4419 6.89579 22.1373 6.20034 22.9919 6.20034C23.2306 6.20034 23.4538 6.25924 23.6558 6.35586L22.6266 7.38509C22.4246 7.58712 22.4246 7.91366 22.6266 8.11568C22.7274 8.21644 22.8596 8.26707 22.9919 8.26707C23.1242 8.26707 23.2564 8.21644 23.3572 8.11568L24.3864 7.08645C24.4836 7.28847 24.542 7.51168 24.542 7.75039Z" fill="black"/>
<path d="M29.8602 0.151518L31.2744 1.56573V1.56573L29.8602 0.151518ZM27.9448 2.06686V4.06686H28.7733L29.359 3.48108L27.9448 2.06686ZM15.9149 2.06686V0.0668646H15.0816L14.4949 0.658461L15.9149 2.06686ZM0.791547 17.3147L2.20577 18.729L2.21155 18.7231L0.791547 17.3147ZM0.791547 19.893L2.20576 18.4788L0.791547 19.893ZM11.366 30.4674L9.95179 31.8816L11.366 30.4674ZM13.9494 30.4623L15.3626 31.8775L15.3726 31.8676L15.3824 31.8575L13.9494 30.4623ZM28.6754 15.3384L30.1084 16.7336L30.6754 16.1513V15.3384H28.6754ZM28.6754 2.79746L27.2612 1.38324L26.6754 1.96903V2.79746H28.6754ZM30.5908 0.882109L32.005 2.29632L32.005 2.29632L30.5908 0.882109ZM27.6421 14.9189L29.075 16.3141L29.6421 15.7317V14.9189H27.6421ZM13.2137 29.7368L14.6279 31.1511L14.6373 31.1416L14.6466 31.1321L13.2137 29.7368ZM12.0966 29.7368L13.5108 28.3226L12.0966 29.7368ZM1.52214 19.1624L0.107924 20.5766L1.52214 19.1624ZM1.52369 18.0438L2.93791 19.458L2.94366 19.4522L1.52369 18.0438ZM16.3458 3.10023V1.10023H15.5126L14.9258 1.6918L16.3458 3.10023ZM26.9115 3.10023L28.3257 4.51445L31.7399 1.10023H26.9115V3.10023ZM24.4143 5.59737L23.3098 7.2647L24.6726 8.16751L25.8285 7.01158L24.4143 5.59737ZM25.1449 6.32796L23.7307 4.91374L22.5748 6.06967L23.4776 7.43249L25.1449 6.32796ZM27.6421 3.83082H29.6421V-0.997603L26.2278 2.41661L27.6421 3.83082ZM23.6558 6.35586L25.0701 7.77007L27.0689 5.77122L24.5188 4.55159L23.6558 6.35586ZM22.6266 7.38509L24.0408 8.7993L22.6266 7.38509ZM22.6266 8.11568L24.0408 6.70147L22.6266 8.11568ZM23.3572 8.11568L21.943 6.70147L23.3572 8.11568ZM24.3864 7.08645L26.1889 6.21979L24.9667 3.67779L22.9722 5.67223L24.3864 7.08645ZM32.005 -1.2627C31.0219 -2.24577 29.429 -2.24577 28.446 -1.2627L31.2744 1.56573C30.6954 2.14476 29.7556 2.14476 29.1766 1.56573L32.005 -1.2627ZM28.446 -1.2627L26.5306 0.652651L29.359 3.48108L31.2744 1.56573L28.446 -1.2627ZM27.9448 0.0668646H15.9149V4.06686H27.9448V0.0668646ZM14.4949 0.658461L-0.628453 15.9063L2.21155 18.7231L17.3349 3.47527L14.4949 0.658461ZM-0.622667 15.9005C-1.3423 16.6201 -1.74219 17.5873 -1.74219 18.6038H2.25781C2.25781 18.6216 2.25408 18.6454 2.24356 18.6708C2.23304 18.6962 2.21872 18.716 2.20576 18.7289L-0.622667 15.9005ZM-1.74219 18.6038C-1.74219 19.6204 -1.3423 20.5876 -0.622667 21.3072L2.20576 18.4788C2.21872 18.4917 2.23304 18.5115 2.24356 18.5369C2.25408 18.5623 2.25781 18.5861 2.25781 18.6038H-1.74219ZM-0.622667 21.3072L9.95179 31.8816L12.7802 29.0532L2.20576 18.4788L-0.622667 21.3072ZM9.95179 31.8816C10.6971 32.627 11.6781 33.0001 12.6531 33.0001V29.0001C12.6733 29.0001 12.6958 29.004 12.719 29.0134C12.7436 29.0234 12.765 29.038 12.7802 29.0532L9.95179 31.8816ZM12.6531 33.0001C13.633 33.0001 14.6156 32.6235 15.3626 31.8775L12.5362 29.047C12.5481 29.0351 12.5666 29.0221 12.5894 29.0128C12.611 29.004 12.6326 29.0001 12.6531 29.0001V33.0001ZM15.3824 31.8575L30.1084 16.7336L27.2425 13.9432L12.5165 29.067L15.3824 31.8575ZM30.6754 15.3384V2.79746H26.6754V15.3384H30.6754ZM30.0896 4.21167L32.005 2.29632L29.1766 -0.532105L27.2612 1.38324L30.0896 4.21167ZM32.005 2.29632C32.9881 1.31325 32.9881 -0.279624 32.005 -1.2627L29.1766 1.56573C28.5975 0.986706 28.5975 0.0469202 29.1766 -0.532105L32.005 2.29632ZM26.2091 13.5236L11.7807 28.3416L14.6466 31.1321L29.075 16.3141L26.2091 13.5236ZM11.7994 28.3226C12.2726 27.8495 13.0377 27.8495 13.5108 28.3226L10.6824 31.1511C11.7714 32.24 13.5389 32.24 14.6279 31.1511L11.7994 28.3226ZM13.5108 28.3226L2.93635 17.7482L0.107924 20.5766L10.6824 31.1511L13.5108 28.3226ZM2.93635 17.7482C3.41201 18.2238 3.4069 18.989 2.9379 19.458L0.109474 16.6296C-0.978515 17.7175 -0.983618 19.4851 0.107924 20.5766L2.93635 17.7482ZM2.94366 19.4522L17.7658 4.50867L14.9258 1.6918L0.103717 16.6353L2.94366 19.4522ZM16.3458 5.10023H26.9115V1.10023H16.3458V5.10023ZM25.4973 1.68602L23.0001 4.18315L25.8285 7.01158L28.3257 4.51445L25.4973 1.68602ZM25.5189 3.93003C24.7991 3.45319 23.9295 3.16697 22.9919 3.16697V7.16697C23.1053 7.16697 23.2122 7.20005 23.3098 7.2647L25.5189 3.93003ZM22.9919 3.16697C20.4628 3.16697 18.4085 5.22132 18.4085 7.75039H22.4085C22.4085 7.43046 22.672 7.16697 22.9919 7.16697V3.16697ZM18.4085 7.75039C18.4085 10.2795 20.4628 12.3338 22.9919 12.3338V8.33381C22.672 8.33381 22.4085 8.07032 22.4085 7.75039H18.4085ZM22.9919 12.3338C25.521 12.3338 27.5753 10.2795 27.5753 7.75039H23.5753C23.5753 8.07032 23.3118 8.33381 22.9919 8.33381V12.3338ZM27.5753 7.75039C27.5753 6.81283 27.2891 5.94323 26.8123 5.22342L23.4776 7.43249C23.5422 7.53008 23.5753 7.63701 23.5753 7.75039H27.5753ZM26.5591 7.74217L29.0563 5.24504L26.2278 2.41661L23.7307 4.91374L26.5591 7.74217ZM25.6421 3.83082V14.9189H29.6421V3.83082H25.6421ZM22.542 7.75039C22.542 7.50041 22.7419 7.30044 22.9919 7.30044V11.3004C24.9511 11.3004 26.542 9.70955 26.542 7.75039H22.542ZM22.9919 7.30044C23.2419 7.30044 23.4419 7.50041 23.4419 7.75039H19.4419C19.4419 9.70955 21.0327 11.3004 22.9919 11.3004V7.30044ZM23.4419 7.75039C23.4419 8.00036 23.2419 8.20034 22.9919 8.20034V4.20034C21.0327 4.20034 19.4419 5.79122 19.4419 7.75039H23.4419ZM22.9919 8.20034C22.8946 8.20034 22.8245 8.17521 22.7929 8.16013L24.5188 4.55159C24.0832 4.34327 23.5666 4.20034 22.9919 4.20034V8.20034ZM22.2416 4.94164L21.2124 5.97088L24.0408 8.7993L25.0701 7.77007L22.2416 4.94164ZM21.2124 5.97088C20.2293 6.95395 20.2293 8.54682 21.2124 9.5299L24.0408 6.70147C24.6198 7.28049 24.6198 8.22028 24.0408 8.7993L21.2124 5.97088ZM21.2124 9.5299C21.7024 10.0199 22.3496 10.2671 22.9919 10.2671V6.26707C23.3697 6.26707 23.7523 6.41296 24.0408 6.70147L21.2124 9.5299ZM22.9919 10.2671C23.6342 10.2671 24.2814 10.0199 24.7714 9.5299L21.943 6.70147C22.2315 6.41296 22.6142 6.26707 22.9919 6.26707V10.2671ZM24.7714 9.5299L25.8006 8.50066L22.9722 5.67223L21.943 6.70147L24.7714 9.5299ZM22.584 7.95311C22.5663 7.9164 22.542 7.845 22.542 7.75039H26.542C26.542 7.17836 26.4008 6.66055 26.1889 6.21979L22.584 7.95311Z" fill="black" mask="url(#path-1-inside-1)"/>
</g>
<defs>
<clipPath id="clip0">
<rect width="31" height="31" fill="white"/>
</clipPath>
</defs>
</svg>
