<svg width="32" height="32" viewBox="0 0 32 32" fill="none" xmlns="http://www.w3.org/2000/svg">
<path d="M31.5833 6.28307L16.2207 0.61457C16.0783 0.56207 15.9218 0.56207 15.7794 0.61457L0.416813 6.28307L0.416687 6.28357C0.366375 6.3022 0.318 6.32682 0.273 6.35813C0.101938 6.47738 0 6.6727 0 6.88113V25.119C0 25.3859 0.166313 25.6246 0.41675 25.7171L15.7793 31.3856C15.8509 31.412 15.9256 31.4249 15.9999 31.4249C16.075 31.4249 16.1497 31.4113 16.2204 31.3852L16.2207 31.3856L31.5833 25.7171C31.8337 25.6246 32 25.386 32 25.119V6.88113C32 6.61413 31.8337 6.37551 31.5833 6.28307ZM15.3626 29.8729L1.27488 24.6748V7.79582L4.14337 8.85432V16.5779C4.14337 16.8449 4.30969 17.0836 4.56012 17.176L11.4446 19.7163C11.5162 19.7428 11.5909 19.7557 11.6652 19.7557C11.7938 19.7557 11.9213 19.7168 12.0297 19.6412C12.2008 19.522 12.3027 19.3267 12.3027 19.1183V11.8649L15.3624 12.9939V29.8729H15.3626ZM11.0279 11.3945V18.2034L5.41831 16.1336V9.32463L11.0279 11.3945ZM6.62231 8.40488L11.6653 6.54407L16.7083 8.40488L11.6653 10.2657L6.62231 8.40488ZM16 11.8702L13.4999 10.9477L18.7705 9.00288C19.0209 8.91045 19.1873 8.67182 19.1873 8.40482C19.1873 8.13782 19.0209 7.89919 18.7705 7.80676L11.886 5.26651C11.7436 5.21401 11.5871 5.21401 11.4446 5.26651L4.77394 7.72801L2.47894 6.88113L16 1.89213L29.5211 6.8812L16 11.8702ZM30.7251 24.6748L16.6375 29.8728V12.9939L30.7251 7.79582V24.6748Z" fill="black"/>
</svg>
