<svg width="35" height="32" viewBox="0 0 35 32" fill="none" xmlns="http://www.w3.org/2000/svg">
<path d="M33.5828 16.585H18.1677C17.864 16.585 17.6172 16.8309 17.6172 17.1355V21.5398C17.6172 21.8444 17.864 22.0903 18.1677 22.0903H18.7183V31.4495C18.7183 31.754 18.965 32 19.2688 32H32.4817C32.7855 32 33.0322 31.754 33.0322 31.4495V22.0903H33.5828C33.8865 22.0903 34.1333 21.8444 34.1333 21.5398V17.1355C34.1333 16.8309 33.8865 16.585 33.5828 16.585ZM31.9312 30.8989H19.8193V22.0903H23.1226V25.9441C23.1226 26.2487 23.3693 26.4946 23.6731 26.4946H28.0774C28.3812 26.4946 28.6279 26.2487 28.6279 25.9441V22.0903H31.9312V30.8989ZM24.2236 22.0903H27.5269V25.3936H24.2236V22.0903ZM33.0322 20.9893H18.7183V17.686H33.0322V20.9893Z" fill="#E1C76E"/>
<path d="M15.9656 16.585H0.550538C0.246774 16.585 0 16.8309 0 17.1355V21.5398C0 21.8444 0.246774 22.0903 0.550538 22.0903H1.10108V31.4495C1.10108 31.754 1.34785 32 1.65161 32H14.8645C15.1683 32 15.4151 31.754 15.4151 31.4495V22.0903H15.9656C16.2694 22.0903 16.5161 21.8444 16.5161 21.5398V17.1355C16.5161 16.8309 16.2694 16.585 15.9656 16.585ZM14.314 30.8989H2.20215V22.0903H5.50538V25.9441C5.50538 26.2487 5.75215 26.4946 6.05591 26.4946H10.4602C10.764 26.4946 11.0108 26.2487 11.0108 25.9441V22.0903H14.314V30.8989ZM6.60645 22.0903H9.90968V25.3936H6.60645V22.0903ZM15.4151 20.9893H1.10108V17.686H15.4151V20.9893Z" fill="#E1C76E"/>
<path d="M8.25855 6.60645H8.80908V17.0667C8.80908 17.3712 9.05586 17.6172 9.35962 17.6172H24.7747C25.0784 17.6172 25.3252 17.3712 25.3252 17.0667V6.60645H25.8757C26.1795 6.60645 26.4263 6.36048 26.4263 6.05591V0.550538C26.4263 0.245968 26.1795 0 25.8757 0H8.25855C7.95478 0 7.70801 0.245968 7.70801 0.550538V6.05591C7.70801 6.36048 7.95478 6.60645 8.25855 6.60645ZM24.2241 16.5161H9.91016V6.60645H14.3145V13.7634C14.3145 13.9858 14.4489 14.1874 14.6542 14.272C14.8602 14.3581 15.0962 14.3102 15.2542 14.1527L17.0671 12.3398L18.88 14.1527C18.9852 14.2578 19.1263 14.314 19.2693 14.314C19.3403 14.314 19.4118 14.3008 19.4801 14.272C19.6854 14.1874 19.8198 13.9858 19.8198 13.7634V6.60645H24.2241V16.5161ZM15.4155 6.60645H18.7188V12.4344L17.4564 11.172C17.3491 11.0648 17.208 11.0108 17.0671 11.0108C16.9263 11.0108 16.7852 11.0648 16.6779 11.172L15.4155 12.4344V6.60645ZM8.80908 1.10108H25.3252V5.50538H8.80908V1.10108Z" fill="#E1C76E"/>
</svg>
