<svg width="32" height="32" viewBox="0 0 32 32" fill="none" xmlns="http://www.w3.org/2000/svg">
<path d="M11.2049 6.92871C6.7866 6.92618 3.2028 10.5058 3.2002 14.924C3.19833 18.1067 5.08326 20.9878 8.0002 22.2608V26.1334C8.0002 27.017 8.71653 27.7334 9.6002 27.7334V28.2667C9.6002 29.1504 10.3165 29.8667 11.2002 29.8667C12.0839 29.8667 12.8002 29.1504 12.8002 28.2667V27.7334C13.6839 27.7334 14.4002 27.017 14.4002 26.1334V22.2608C17.3125 20.9872 19.196 18.112 19.2002 14.9334C19.2028 10.5151 15.6231 6.93131 11.2049 6.92871ZM11.7335 28.2667C11.7335 28.5612 11.4947 28.8 11.2002 28.8C10.9057 28.8 10.6669 28.5612 10.6669 28.2667V27.7334H11.7335V28.2667ZM12.8002 26.6667H9.6002C9.30566 26.6667 9.06686 26.4279 9.06686 26.1334H13.3335C13.3335 26.4279 13.0947 26.6667 12.8002 26.6667ZM13.3335 25.0667H9.06686V24.5334H13.3335V25.0667ZM13.3335 23.4667H9.06686V22.6358C10.4614 23.0326 11.939 23.0326 13.3335 22.6358V23.4667ZM13.0717 21.6027L13.8615 16.0758L12.8055 15.9243L11.9634 21.8224C11.4563 21.8814 10.9441 21.8814 10.437 21.8224L9.59486 15.9243L8.53886 16.0758L9.32873 21.6027C6.33933 20.7624 4.272 18.0386 4.26686 14.9334C4.2632 11.1042 7.3644 7.99705 11.1935 7.99338C15.0227 7.98971 18.1299 11.0909 18.1335 14.92C18.1365 18.031 16.0671 20.763 13.0717 21.6027Z" fill="#E1C76E"/>
<path d="M31.8437 9.22293L24.9104 2.2896C24.8104 2.1896 24.6748 2.13333 24.5333 2.13333V0.533333C24.5333 0.2388 24.2945 0 24 0H5.86667V0.0048C5.7258 0.0028 5.58993 0.0573333 5.4896 0.156267L0.156267 5.4896C0.058 5.5904 0.00353333 5.72593 0.0048 5.86667H0V31.4667C0 31.7612 0.2388 32 0.533333 32H24C24.2945 32 24.5333 31.7612 24.5333 31.4667V14.0875L25.7563 15.3104C25.9645 15.5186 26.3021 15.5186 26.5104 15.3104L31.8437 9.97707C32.0519 9.7688 32.0519 9.4312 31.8437 9.22293ZM22.4 1.06667H23.4667V2.13333H22.4V1.06667ZM5.33333 1.8208V5.33333H1.8208L5.33333 1.8208ZM21.3333 30.9333H1.06667V6.4H5.86667C6.1612 6.4 6.4 6.1612 6.4 5.86667V1.06667H21.3333V2.13333H19.2C18.9055 2.13333 18.6667 2.37213 18.6667 2.66667V8C18.6667 8.14147 18.7229 8.27707 18.8229 8.37707L21.3333 10.8875V30.9333ZM23.4667 30.9333H22.4V11.9541L23.4667 13.0208V30.9333ZM26.1333 14.1792L19.7333 7.7792V3.2H24.3125L30.7125 9.6L26.1333 14.1792Z" fill="#E1C76E"/>
<path d="M13.5721 13.3919C13.422 13.3169 13.2454 13.3169 13.0953 13.3919L11.2004 14.337L9.30545 13.3893C9.15538 13.3143 8.97871 13.3143 8.82865 13.3893L6.69531 14.4559L7.17211 15.4106L9.06705 14.4629L10.962 15.4133C11.112 15.4883 11.2887 15.4883 11.4388 15.4133L13.3337 14.4629L15.2286 15.4133L15.7054 14.4586L13.5721 13.3919Z" fill="#E1C76E"/>
<path d="M22.3998 4.2666C21.5161 4.2666 20.7998 4.98293 20.7998 5.8666C20.7998 6.75027 21.5161 7.4666 22.3998 7.4666C23.2835 7.4666 23.9998 6.75027 23.9998 5.8666C23.9998 4.98293 23.2835 4.2666 22.3998 4.2666ZM22.3998 6.39994C22.1053 6.39994 21.8665 6.16113 21.8665 5.8666C21.8665 5.57207 22.1053 5.33327 22.3998 5.33327C22.6943 5.33327 22.9331 5.57207 22.9331 5.8666C22.9331 6.16113 22.6943 6.39994 22.3998 6.39994Z" fill="#E1C76E"/>
<path d="M27.8889 8.68972L25.2227 11.356L25.9769 12.1102L28.6431 9.44396L27.8889 8.68972Z" fill="#E1C76E"/>
<path d="M31.8771 18.3386L31.8835 18.3332L29.7501 15.6666C29.5497 15.4365 29.2006 15.4126 28.9706 15.6131C28.9515 15.6297 28.9337 15.6476 28.9171 15.6666L26.7838 18.3332L26.7902 18.3386C26.7126 18.4305 26.6691 18.5463 26.667 18.6666V30.9332C26.667 31.5224 27.1445 31.9999 27.7337 31.9999H30.9337C31.5228 31.9999 32.0003 31.5224 32.0003 30.9332V18.6666C31.9981 18.5463 31.9547 18.4304 31.8771 18.3386ZM29.3336 16.8532L30.3576 18.1332H28.3096L29.3336 16.8532ZM30.9336 30.9332H27.7336V19.1999H30.9336V30.9332Z" fill="#E1C76E"/>
</svg>
