<svg width="32" height="32" viewBox="0 0 32 32" fill="none" xmlns="http://www.w3.org/2000/svg">
<path d="M25.3795 18.7588C21.7287 18.7588 18.7588 21.7287 18.7588 25.3795C18.7588 29.0302 21.7287 32.0002 25.3795 32.0002C29.0302 32.0002 32.0002 29.0302 32.0002 25.3795C32.0002 21.7287 29.0302 18.7588 25.3795 18.7588ZM25.3795 30.8967C22.3373 30.8967 19.8622 28.4217 19.8622 25.3795C19.8622 22.3373 22.3373 19.8622 25.3795 19.8622C28.4217 19.8622 30.8967 22.3373 30.8967 25.3795C30.8967 28.4217 28.4217 30.8967 25.3795 30.8967Z" fill="#CFAF3E"/>
<path d="M28.6892 24.8274H25.9306V22.0688C25.9306 21.7637 25.684 21.5171 25.3789 21.5171C25.0738 21.5171 24.8271 21.7637 24.8271 22.0688V25.3792C24.8271 25.6843 25.0738 25.9309 25.3789 25.9309H28.6892C28.9943 25.9309 29.2409 25.6843 29.2409 25.3792C29.2409 25.0741 28.9943 24.8274 28.6892 24.8274Z" fill="#CFAF3E"/>
<path d="M14.8968 11.5864H13.7933H9.93127H8.82782H3.8623V16.5519V17.6554V21.5175V22.6209V27.5864H8.82782H9.93127H14.8968V22.6209V21.5175V17.6554H18.7589H19.8623H24.8278V11.5864H19.8623H18.7589H14.8968ZM19.8623 12.6899H23.7244V16.5519H19.8623V12.6899ZM9.93127 12.6899H13.7933V16.5519H9.93127V12.6899ZM4.96575 12.6899H8.82782V16.5519H4.96575V12.6899ZM4.96575 17.6554H8.82782V21.5175H4.96575V17.6554ZM8.82782 26.483H4.96575V22.6209H8.82782V26.483ZM13.7933 26.483H9.93127V22.6209H13.7933V26.483ZM13.7933 21.5175H9.93127V17.6554H13.7933V21.5175ZM18.7589 16.5519H14.8968V12.6899H18.7589V16.5519Z" fill="#CFAF3E"/>
<path d="M18.2069 30.3448H1.10345V8.82759H27.5862V16C27.5862 16.3051 27.8328 16.5517 28.1379 16.5517C28.443 16.5517 28.6897 16.3051 28.6897 16V8.27586V2.75862C28.6897 2.45352 28.443 2.2069 28.1379 2.2069H25.3793V0.551724C25.3793 0.246621 25.1327 0 24.8276 0H20.9655C20.6604 0 20.4138 0.246621 20.4138 0.551724V2.2069H8.27586V0.551724C8.27586 0.246621 8.02924 0 7.72414 0H3.86207C3.55697 0 3.31034 0.246621 3.31034 0.551724V2.2069H0.551724C0.246621 2.2069 0 2.45352 0 2.75862V8.27586V30.8966C0 31.2017 0.246621 31.4483 0.551724 31.4483H18.2069C18.512 31.4483 18.7586 31.2017 18.7586 30.8966C18.7586 30.5914 18.512 30.3448 18.2069 30.3448ZM21.5172 1.10345H24.2759V2.75862V4.41379H21.5172V2.75862V1.10345ZM4.41379 1.10345H7.17241V2.75862V4.41379H4.41379V2.75862V1.10345ZM1.10345 3.31034H3.31034V4.96552C3.31034 5.27062 3.55697 5.51724 3.86207 5.51724H7.72414C8.02924 5.51724 8.27586 5.27062 8.27586 4.96552V3.31034H20.4138V4.96552C20.4138 5.27062 20.6604 5.51724 20.9655 5.51724H24.8276C25.1327 5.51724 25.3793 5.27062 25.3793 4.96552V3.31034H27.5862V7.72414H1.10345V3.31034Z" fill="#CFAF3E"/>
</svg>
