<svg width="38" height="32" viewBox="0 0 38 32" fill="none" xmlns="http://www.w3.org/2000/svg">
<path d="M36.1208 10.9489L34.2562 9.33744C34.0249 9.13741 33.6751 9.16295 33.4752 9.3944C33.2752 9.62577 33.3006 9.97546 33.5321 10.1754L35.3966 11.7868C36.0613 12.3612 36.1347 13.3693 35.5603 14.034L23.4493 28.0476C23.2493 28.279 23.2747 28.6287 23.5061 28.8287C23.6109 28.9192 23.7398 28.9635 23.868 28.9635C24.0234 28.9635 24.1777 28.8985 24.2872 28.7719L36.3982 14.7581C37.372 13.6314 37.2475 11.9225 36.1208 10.9489Z" fill="#CFAF3E"/>
<path d="M32.8377 8.11178L24.2123 0.657488C23.6664 0.185774 22.9695 -0.0448723 22.2501 0.00723485C21.5306 0.0595591 20.8747 0.389064 20.4029 0.934814L19.5811 1.88577C19.3811 2.11721 19.4065 2.46691 19.638 2.66687C19.8695 2.86698 20.2191 2.84136 20.4191 2.60999L21.2409 1.65903C21.5192 1.33712 21.9062 1.14274 22.3306 1.11183C22.7551 1.08064 23.1661 1.21713 23.488 1.4954L32.1135 8.94969C32.2182 9.04022 32.3471 9.08451 32.4754 9.08451C32.6307 9.08451 32.7851 9.01953 32.8946 8.89288C33.0945 8.66143 33.0691 8.31174 32.8377 8.11178Z" fill="#CFAF3E"/>
<path d="M27.5808 6.15425L12.6587 1.14922C11.2467 0.675619 9.71294 1.43906 9.23942 2.85087L9.04257 3.43773C8.9453 3.72765 9.10155 4.04159 9.39154 4.13886C9.68153 4.23613 9.99533 4.07995 10.0927 3.78989L10.2895 3.20303C10.5689 2.37011 11.4736 1.91975 12.3066 2.19917L27.2287 7.20414C28.0616 7.48356 28.5119 8.38834 28.2325 9.22119L21.2898 29.9207C21.1925 30.2107 21.3488 30.5245 21.6387 30.6219C21.6971 30.6414 21.7565 30.6508 21.8149 30.6508C22.0463 30.6508 22.2621 30.5045 22.3399 30.273L29.2826 9.57349C29.7561 8.16175 28.9927 6.62777 27.5808 6.15425Z" fill="#CFAF3E"/>
<path d="M18.4398 4.76562H2.70074C1.21156 4.76562 0 5.97712 0 7.46629V29.2991C0 30.7883 1.21156 31.9999 2.70074 31.9999H18.4398C19.929 31.9999 21.1406 30.7883 21.1406 29.2991V7.46629C21.1405 5.97712 19.929 4.76562 18.4398 4.76562ZM20.0329 29.2991C20.0329 30.1776 19.3182 30.8923 18.4398 30.8923H2.70074C1.82223 30.8923 1.10757 30.1776 1.10757 29.2991V7.46629C1.10757 6.58778 1.8223 5.87312 2.70074 5.87312H18.4398C19.3184 5.87312 20.033 6.58785 20.033 7.46629V29.2991H20.0329Z" fill="#CFAF3E"/>
<path d="M16.657 17.1911C16.5919 16.9907 16.4186 16.8445 16.2101 16.8143L12.6564 16.2979L11.0672 13.0778C10.9739 12.8887 10.7814 12.769 10.5706 12.769C10.3599 12.769 10.1674 12.8887 10.074 13.0778L8.48474 16.2979L4.93111 16.8143C4.72253 16.8445 4.54921 16.9907 4.48414 17.1911C4.41901 17.3916 4.47336 17.6116 4.62425 17.7587L7.19574 20.2652L6.58869 23.8046C6.55309 24.0123 6.63849 24.2223 6.80899 24.3462C6.90546 24.4162 7.01974 24.4519 7.13452 24.4519C7.22259 24.4519 7.3111 24.4308 7.39216 24.3884L10.5706 22.7172L13.7491 24.3884C13.9357 24.4864 14.1617 24.4701 14.3322 24.3462C14.5028 24.2223 14.5882 24.0123 14.5525 23.8046L13.9455 20.2652L16.5169 17.7587C16.6678 17.6116 16.7222 17.3916 16.657 17.1911ZM12.964 19.6754C12.8334 19.8026 12.7739 19.986 12.8047 20.1656L13.2713 22.8859L10.8283 21.6015C10.6669 21.5167 10.4741 21.5167 10.3129 21.6015L7.86988 22.8859L8.33645 20.1656C8.36721 19.986 8.30772 19.8026 8.17717 19.6754L6.20079 17.7489L8.93214 17.3519C9.11249 17.3257 9.26837 17.2125 9.34907 17.049L10.5705 14.5739L11.792 17.049C11.8726 17.2124 12.0286 17.3257 12.209 17.3519L14.9404 17.7489L12.964 19.6754Z" fill="#CFAF3E"/>
</svg>
