<svg width="23" height="32" viewBox="0 0 23 32" fill="none" xmlns="http://www.w3.org/2000/svg">
<path d="M11.4912 21.041C9.57473 21.041 8.01562 22.6001 8.01562 24.5166C8.01562 26.2736 9.3265 27.7294 11.0215 27.9595V31.5303C11.0215 31.7896 11.2318 31.9999 11.4912 31.9999C11.7505 31.9999 11.9608 31.7896 11.9608 31.5303V27.9595C13.6558 27.7293 14.9667 26.2736 14.9667 24.5166C14.9667 22.6001 13.4076 21.041 11.4912 21.041ZM11.4912 27.0528C10.0927 27.0528 8.95496 25.915 8.95496 24.5166C8.95496 23.1181 10.0927 21.9804 11.4912 21.9804C12.8896 21.9804 14.0274 23.1181 14.0274 24.5166C14.0274 25.915 12.8896 27.0528 11.4912 27.0528Z" fill="#CFAF3E"/>
<path d="M11.4912 19.9765C11.7505 19.9765 11.9608 19.7662 11.9608 19.5068V0.469667C11.9608 0.210286 11.7505 0 11.4912 0C11.2318 0 11.0215 0.210286 11.0215 0.469667V19.5068C11.0215 19.7662 11.2318 19.9765 11.4912 19.9765Z" fill="#CFAF3E"/>
<path d="M19.5068 3.44423C19.7662 3.44423 19.9764 3.23394 19.9764 2.97456V0.469667C19.9764 0.210286 19.7662 0 19.5068 0C19.2474 0 19.0371 0.210286 19.0371 0.469667V2.97456C19.0371 3.23394 19.2474 3.44423 19.5068 3.44423Z" fill="#CFAF3E"/>
<path d="M3.47553 10.9589C3.73491 10.9589 3.94519 10.7486 3.94519 10.4892V0.469667C3.94519 0.210286 3.73491 0 3.47553 0C3.21615 0 3.00586 0.210286 3.00586 0.469667V10.4892C3.00586 10.7486 3.21615 10.9589 3.47553 10.9589Z" fill="#CFAF3E"/>
<path d="M11.4912 23.0449C11.2318 23.0449 11.0215 23.2552 11.0215 23.5146C11.0215 23.774 11.2318 23.9843 11.4912 23.9843C11.7847 23.9843 12.0234 24.223 12.0234 24.5165C12.0234 24.7759 12.2337 24.9862 12.4931 24.9862C12.7525 24.9862 12.9628 24.7759 12.9628 24.5165C12.9628 23.7051 12.3026 23.0449 11.4912 23.0449Z" fill="#CFAF3E"/>
<path d="M3.47554 12.0234C1.55911 12.0234 0 13.5825 0 15.499C0 17.256 1.31087 18.7118 3.00587 18.9419V31.5303C3.00587 31.7897 3.21616 32 3.47554 32C3.73492 32 3.94521 31.7897 3.94521 31.5303V18.9419C5.6402 18.7118 6.95108 17.256 6.95108 15.499C6.95108 13.5825 5.39197 12.0234 3.47554 12.0234ZM3.47554 18.0352C2.07706 18.0352 0.939335 16.8975 0.939335 15.499C0.939335 14.1005 2.07706 12.9628 3.47554 12.9628C4.87402 12.9628 6.01174 14.1005 6.01174 15.499C6.01174 16.8975 4.87402 18.0352 3.47554 18.0352Z" fill="#CFAF3E"/>
<path d="M3.47553 14.0273C3.21615 14.0273 3.00586 14.2376 3.00586 14.497C3.00586 14.7564 3.21615 14.9667 3.47553 14.9667C3.76904 14.9667 4.00782 15.2055 4.00782 15.499C4.00782 15.7583 4.2181 15.9686 4.47748 15.9686C4.73687 15.9686 4.94715 15.7583 4.94715 15.499C4.94715 14.6875 4.28699 14.0273 3.47553 14.0273Z" fill="#CFAF3E"/>
<path d="M22.9823 7.98433C22.9823 6.0679 21.4232 4.50879 19.5068 4.50879C17.5904 4.50879 16.0312 6.0679 16.0312 7.98433C16.0312 9.74138 17.3421 11.1972 19.0371 11.4272V31.5303C19.0371 31.7897 19.2474 32 19.5068 32C19.7662 32 19.9765 31.7897 19.9765 31.5303V11.4272C21.6715 11.1972 22.9823 9.74138 22.9823 7.98433ZM19.5068 10.5205C18.1083 10.5205 16.9706 9.38281 16.9706 7.98433C16.9706 6.58585 18.1083 5.44812 19.5068 5.44812C20.9053 5.44812 22.043 6.58585 22.043 7.98433C22.043 9.38281 20.9053 10.5205 19.5068 10.5205Z" fill="#CFAF3E"/>
<path d="M19.5068 6.5127C19.2474 6.5127 19.0371 6.72298 19.0371 6.98236C19.0371 7.24174 19.2474 7.45203 19.5068 7.45203C19.8003 7.45203 20.0391 7.69081 20.0391 7.98432C20.0391 8.2437 20.2494 8.45399 20.5087 8.45399C20.7681 8.45399 20.9784 8.2437 20.9784 7.98432C20.9784 7.17286 20.3182 6.5127 19.5068 6.5127Z" fill="#CFAF3E"/>
</svg>
