<svg width="52" height="33" viewBox="0 0 52 33" fill="none" xmlns="http://www.w3.org/2000/svg">
<path d="M49.7536 27.0166H5.90741C5.16309 27.0166 4.56349 26.4102 4.56349 25.6727V23.3157H5.25268V25.6727C5.25268 26.038 5.54903 26.3275 5.90741 26.3275H49.7536C50.1189 26.3275 50.4084 26.0311 50.4084 25.6727V18.0641C50.4084 16.4996 49.1402 15.2315 47.5758 15.2315H37.0243V7.58151H45.1223C45.7219 7.58151 45.8115 7.48503 45.8115 7.47814C45.8528 7.39543 45.7219 7.00949 45.6323 6.72692C45.5909 6.60286 45.5496 6.47192 45.5013 6.32719C45.4738 6.26516 45.1705 5.58286 43.7439 5.58286H37.0243V2.01286C37.0243 1.64759 36.728 1.35813 36.3696 1.35813H5.18376C4.81849 1.35813 4.52903 1.65449 4.52903 2.01286V17.2991H3.83984V2.01286C3.83984 1.26854 4.44633 0.668945 5.18376 0.668945H36.3696C37.1139 0.668945 37.7135 1.27543 37.7135 2.01286V4.89368H43.7439C45.7288 4.89368 46.1354 6.0584 46.1561 6.10665C46.2043 6.25138 46.2457 6.38232 46.287 6.50638C46.48 7.0784 46.6247 7.52638 46.3697 7.87786C46.1216 8.22246 45.6254 8.26381 45.1223 8.26381H37.7135V14.5354H47.5758C49.5193 14.5354 51.0975 16.1137 51.0975 18.0572V25.6589C51.0975 26.4102 50.498 27.0166 49.7536 27.0166Z" fill="black"/>
<path d="M43.1999 32.222C45.773 32.222 47.8589 30.1362 47.8589 27.5632C47.8589 24.9901 45.773 22.9043 43.1999 22.9043C40.6269 22.9043 38.541 24.9901 38.541 27.5632C38.541 30.1362 40.6269 32.222 43.1999 32.222Z" fill="white"/>
<path d="M43.1998 32.5588C40.443 32.5588 38.1963 30.3121 38.1963 27.5553C38.1963 24.7985 40.443 22.5518 43.1998 22.5518C45.9565 22.5518 48.2033 24.7985 48.2033 27.5553C48.2033 30.3121 45.9565 32.5588 43.1998 32.5588ZM43.1998 23.2478C40.8221 23.2478 38.8855 25.1845 38.8855 27.5622C38.8855 29.9399 40.8221 31.8765 43.1998 31.8765C45.5775 31.8765 47.5141 29.9399 47.5141 27.5622C47.5141 25.1776 45.5775 23.2478 43.1998 23.2478Z" fill="black"/>
<path d="M43.1998 29.5675C42.0971 29.5675 41.208 28.6716 41.208 27.5757C41.208 26.4799 42.1039 25.584 43.1998 25.584C44.2956 25.584 45.1915 26.4799 45.1915 27.5757C45.1915 28.6716 44.2956 29.5675 43.1998 29.5675ZM43.1998 26.2663C42.483 26.2663 41.8972 26.8521 41.8972 27.5688C41.8972 28.2856 42.483 28.8714 43.1998 28.8714C43.9165 28.8714 44.5023 28.2856 44.5023 27.5688C44.5023 26.8521 43.9165 26.2663 43.1998 26.2663Z" fill="black"/>
<path d="M15.0115 32.222C17.5845 32.222 19.6704 30.1362 19.6704 27.5632C19.6704 24.9901 17.5845 22.9043 15.0115 22.9043C12.4384 22.9043 10.3525 24.9901 10.3525 27.5632C10.3525 30.1362 12.4384 32.222 15.0115 32.222Z" fill="white"/>
<path d="M15.0113 32.5588C12.2546 32.5588 10.0078 30.3121 10.0078 27.5553C10.0078 24.7985 12.2546 22.5518 15.0113 22.5518C17.7681 22.5518 20.0148 24.7985 20.0148 27.5553C20.0148 30.3121 17.7681 32.5588 15.0113 32.5588ZM15.0113 23.2478C12.6336 23.2478 10.697 25.1845 10.697 27.5622C10.697 29.9399 12.6336 31.8765 15.0113 31.8765C17.389 31.8765 19.3257 29.9399 19.3257 27.5622C19.3257 25.1776 17.389 23.2478 15.0113 23.2478Z" fill="black"/>
<path d="M33.826 22.9707H21.1035V23.6599H33.826V22.9707Z" fill="black"/>
<path d="M13.4395 19.5596H2.36426V20.2488H13.4395V19.5596Z" fill="black"/>
<path d="M9.71806 22.9707H0.662109V23.6599H9.71806V22.9707Z" fill="black"/>
<path d="M47.6286 14.8133L46.1816 7.77246L45.5066 7.91119L46.9535 14.9521L47.6286 14.8133Z" fill="black"/>
<path d="M50.6412 21.4555H49.3938C48.1119 21.4555 47.0713 20.4148 47.0713 19.1329V17.8924C47.0713 17.6374 47.278 17.4375 47.5261 17.4375H50.6343C50.8893 17.4375 51.0892 17.6443 51.0892 17.8924V21.0006C51.0961 21.2557 50.8962 21.4555 50.6412 21.4555ZM47.7674 18.1267V19.1398C47.7674 20.0427 48.4979 20.7732 49.4007 20.7732H50.4138V18.1267H47.7674Z" fill="black"/>
<path d="M15.1423 29.4702C14.0948 29.4702 13.2471 28.6225 13.2471 27.575C13.2471 26.5274 14.0948 25.6797 15.1423 25.6797C16.1899 25.6797 17.0376 26.5274 17.0376 27.575C17.0376 28.6225 16.1899 29.4702 15.1423 29.4702ZM15.1423 26.3689C14.4807 26.3689 13.9363 26.9064 13.9363 27.575C13.9363 28.2435 14.4738 28.781 15.1423 28.781C15.8109 28.781 16.3484 28.2435 16.3484 27.575C16.3484 26.9064 15.8109 26.3689 15.1423 26.3689Z" fill="black"/>
<path d="M37.7136 19.8975H37.0244V26.7273H37.7136V19.8975Z" fill="black"/>
<path d="M20.2081 16.9903L15.625 12.4416L16.1074 11.9523L20.2012 16.0116L27.6169 8.44434L28.1131 8.92677L20.2081 16.9903Z" fill="black"/>
<path d="M37.7136 3.77051H37.0244V18.3607H37.7136V3.77051Z" fill="black"/>
</svg>
