<svg width="48" height="30" viewBox="0 0 48 30" fill="none" xmlns="http://www.w3.org/2000/svg">
<path d="M44.6399 12.718L43.3969 7.80547C43.7367 7.73414 43.9917 7.43625 43.9917 7.07935V6.28728C43.9917 4.56753 42.5756 3.16847 40.8351 3.16847H35.1734V1.53468C35.1734 0.688418 34.4766 0 33.6201 0H4.75988C3.90338 0 3.20663 0.688418 3.20663 1.53468V15.0001C3.20663 15.4102 3.5431 15.7427 3.95823 15.7427C4.37326 15.7427 4.70982 15.4103 4.70982 15.0001V1.53468C4.70982 1.50735 4.73223 1.48521 4.75988 1.48521H33.62C33.6477 1.48521 33.6701 1.50735 33.6701 1.53468V15.0003C33.6701 15.4104 34.0066 15.7429 34.4217 15.7429C34.8367 15.7429 35.1733 15.4105 35.1733 15.0003V14.1585H44.0392C44.0399 14.1585 44.0405 14.1587 44.0411 14.1587C44.0419 14.1587 44.0425 14.1586 44.0432 14.1586C45.1342 14.1593 46.0605 14.8668 46.3787 15.8418H44.0417C43.6267 15.8418 43.2901 16.1742 43.2901 16.5844V18.1685C43.2901 19.4515 44.3465 20.4953 45.645 20.4953H46.4968V23.7626H44.5316C43.8861 21.9208 42.1141 20.5942 40.0333 20.5942C37.9525 20.5942 36.1804 21.9208 35.535 23.7626H35.1731V18.1684C35.1731 17.7584 34.8366 17.4258 34.4215 17.4258C34.0065 17.4258 33.6699 17.7583 33.6699 18.1684V23.7624H18.0766C17.4311 21.9206 15.6591 20.594 13.5783 20.594C11.4975 20.594 9.72546 21.9206 9.07999 23.7624H4.75988C4.73223 23.7624 4.70982 23.7402 4.70982 23.7129V22.0792H7.96661C8.38164 22.0792 8.71821 21.7468 8.71821 21.3366C8.71821 20.9264 8.38173 20.594 7.96661 20.594H0.751595C0.336563 20.594 0 20.9264 0 21.3366C0 21.7468 0.336469 22.0792 0.751595 22.0792H3.20673V23.7129C3.20673 24.5592 3.90348 25.2476 4.75998 25.2476H8.81974C8.81955 25.2641 8.81842 25.2805 8.81842 25.297C8.81842 27.8903 10.9538 30 13.5783 30C16.2028 30 18.3382 27.8903 18.3382 25.297C18.3382 25.2804 18.3371 25.2641 18.3369 25.2476H35.2747C35.2745 25.2641 35.2734 25.2805 35.2734 25.297C35.2734 27.8903 37.4088 30 40.0333 30C42.6578 30 44.7932 27.8903 44.7932 25.297C44.7932 25.2804 44.7921 25.2641 44.7919 25.2476H47.2484C47.6634 25.2476 48 24.9151 48 24.505V16.5842C48.0001 14.6286 46.5397 13.0038 44.6399 12.718ZM35.1734 4.65358H40.8351C41.7469 4.65358 42.4886 5.38646 42.4886 6.28728V6.33674H35.1734V4.65358ZM35.1734 12.6734V7.82186H41.8517L43.0792 12.6734H35.1734ZM13.5783 28.5151C11.7825 28.5151 10.3215 27.0716 10.3215 25.2972C10.3215 23.5228 11.7825 22.0794 13.5783 22.0794C15.3741 22.0794 16.8351 23.5228 16.8351 25.2972C16.8351 27.0716 15.3741 28.5151 13.5783 28.5151ZM40.0335 28.5151C38.2377 28.5151 36.7767 27.0716 36.7767 25.2972C36.7767 23.5228 38.2377 22.0794 40.0335 22.0794C41.8293 22.0794 43.2903 23.5228 43.2903 25.2972C43.2903 27.0716 41.8293 28.5151 40.0335 28.5151ZM46.497 19.01H45.6452C45.1755 19.01 44.7934 18.6325 44.7934 18.1684V17.3268H46.4969V19.01H46.497Z" fill="black"/>
<path d="M13.5777 23.7627C12.7212 23.7627 12.0244 24.4511 12.0244 25.2974C12.0244 26.1436 12.7212 26.832 13.5777 26.832C14.4342 26.832 15.1309 26.1436 15.1309 25.2974C15.1309 24.4511 14.4342 23.7627 13.5777 23.7627Z" fill="black"/>
<path d="M40.0337 23.7627C39.1772 23.7627 38.4805 24.4511 38.4805 25.2974C38.4805 26.1436 39.1772 26.832 40.0337 26.832C40.8902 26.832 41.587 26.1436 41.587 25.2974C41.587 24.4511 40.8902 23.7627 40.0337 23.7627Z" fill="black"/>
<path d="M31.2152 20.5947H19.9918C19.5768 20.5947 19.2402 20.9272 19.2402 21.3373C19.2402 21.7475 19.5767 22.0799 19.9918 22.0799H31.2152C31.6303 22.0799 31.9668 21.7475 31.9668 21.3373C31.9668 20.9272 31.6304 20.5947 31.2152 20.5947Z" fill="black"/>
<path d="M11.9752 17.4258H2.35511C1.94008 17.4258 1.60352 17.7582 1.60352 18.1684C1.60352 18.5785 1.93999 18.911 2.35511 18.911H11.9752C12.3902 18.911 12.7268 18.5785 12.7268 18.1684C12.7268 17.7582 12.3902 17.4258 11.9752 17.4258Z" fill="black"/>
<path d="M26.1353 7.34634C25.8419 7.05641 25.3659 7.05641 25.0724 7.34643L18.3888 13.95L14.9119 10.5147C14.6184 10.2247 14.1425 10.2247 13.8491 10.5147C13.5555 10.8047 13.5555 11.2748 13.8491 11.5648L17.8574 15.5253C18.0042 15.6703 18.1965 15.7428 18.3888 15.7428C18.5811 15.7428 18.7736 15.6703 18.9202 15.5253L26.1352 8.39657C26.4287 8.10645 26.4287 7.63636 26.1353 7.34634Z" fill="black"/>
</svg>
