<svg width="64" height="59" viewBox="0 0 64 59" fill="none" xmlns="http://www.w3.org/2000/svg">
<path d="M63.7558 23.4108L52.9225 12.5775C52.7663 12.4213 52.5544 12.3333 52.3333 12.3333V9.83333C52.3333 9.37312 51.9602 9 51.5 9H23.1667V9.0075C22.9466 9.00437 22.7343 9.08958 22.5775 9.24417L14.2442 17.5775C14.0906 17.735 14.0055 17.9468 14.0075 18.1667H14V58.1667C14 58.6269 14.3731 59 14.8333 59H51.5C51.9602 59 52.3333 58.6269 52.3333 58.1667V31.0117L54.2442 32.9225C54.5696 33.2478 55.0971 33.2478 55.4225 32.9225L63.7558 24.5892C64.0811 24.2638 64.0811 23.7362 63.7558 23.4108ZM49 10.6667H50.6667V12.3333H49V10.6667ZM22.3333 11.845V17.3333H16.845L22.3333 11.845ZM47.3333 57.3333H15.6667V19H23.1667C23.6269 19 24 18.6269 24 18.1667V10.6667H47.3333V12.3333H44C43.5398 12.3333 43.1667 12.7065 43.1667 13.1667V21.5C43.1667 21.721 43.2546 21.9329 43.4108 22.0892L47.3333 26.0117V57.3333ZM50.6667 57.3333H49V27.6783L50.6667 29.345V57.3333ZM54.8333 31.155L44.8333 21.155V14H51.9883L61.9883 24L54.8333 31.155Z" fill="black"/>
<path d="M49.0039 15.666C47.6232 15.666 46.5039 16.7853 46.5039 18.166C46.5039 19.5467 47.6232 20.666 49.0039 20.666C50.3846 20.666 51.5039 19.5467 51.5039 18.166C51.5039 16.7853 50.3846 15.666 49.0039 15.666ZM49.0039 18.9993C48.5437 18.9993 48.1706 18.6262 48.1706 18.166C48.1706 17.7058 48.5437 17.3327 49.0039 17.3327C49.4641 17.3327 49.8372 17.7058 49.8372 18.166C49.8372 18.6262 49.4641 18.9993 49.0039 18.9993Z" fill="black"/>
<path d="M57.5762 22.5781L53.4102 26.7441L54.5887 27.9226L58.7547 23.7566L57.5762 22.5781Z" fill="black"/>
<path d="M40.8464 3.33008H39.1797V4.99674H40.8464V3.33008Z" fill="black"/>
<path d="M42.487 1.66992H40.8203V3.3366H42.487V1.66992Z" fill="black"/>
<path d="M44.1667 3.33008H42.5V4.99674H44.1667V3.33008Z" fill="black"/>
<path d="M42.487 5H40.8203V6.66666H42.487V5Z" fill="black"/>
<path d="M49.987 0.830078H48.3203V2.49674H49.987V0.830078Z" fill="black"/>
<path d="M32.3463 0H30.6797V1.66666H32.3463V0Z" fill="black"/>
<path d="M9.16666 19.1699H7.5V20.8366H9.16666V19.1699Z" fill="black"/>
<path d="M9.16666 22.5H7.5V24.1667H9.16666V22.5Z" fill="black"/>
<path d="M10.8464 20.8301H9.17969V22.4967H10.8464V20.8301Z" fill="black"/>
<path d="M7.48698 20.8301H5.82031V22.4967H7.48698V20.8301Z" fill="black"/>
<path d="M1.66666 5H0V6.66666H1.66666V5Z" fill="black"/>
<path d="M9.16666 0.830078H7.5V2.49674H9.16666V0.830078Z" fill="black"/>
</svg>
