<svg width="59" height="53" viewBox="0 0 59 53" fill="none" xmlns="http://www.w3.org/2000/svg">
<path d="M52.1456 32.4193C52.3047 32.1618 52.357 31.8891 52.357 31.6432C52.357 31.5441 52.3616 31.4127 52.3668 31.2568C52.4108 29.9444 52.4926 27.5014 51.2296 26.1955C50.7195 25.668 50.0388 25.3892 49.2612 25.3892C47.3958 25.3892 45.1451 26.9508 43.9694 27.8817C43.5062 28.2484 42.3688 29.1893 41.6168 30.1429C40.8647 29.1893 39.7275 28.2484 39.2643 27.8817C38.5058 27.281 37.2998 26.4185 36.0385 25.8817V13.1821C36.0385 12.0772 35.1395 11.1782 34.0346 11.1782H32.2901C32.4739 11.1151 32.662 11.0475 32.858 10.9715L32.9235 10.9428C33.8256 10.503 35.0769 9.77874 35.5413 8.56584C36.0383 7.34468 35.6151 5.94684 34.5538 5.30592C34.1639 5.0635 33.7195 4.94063 33.2333 4.94063C32.3257 4.94063 31.3939 5.36386 30.5614 5.97742C30.4688 4.40666 29.5724 3.19524 28.3712 3.02496C28.2568 3.00836 28.1408 3 28.0265 3C27.2871 3 26.5807 3.34445 25.9836 3.99591C25.6829 4.3241 25.4137 4.736 25.184 5.19461C24.945 4.75798 24.6691 4.36257 24.3634 4.03908C23.7414 3.38121 23.0208 3.03355 22.2798 3.03355C22.1406 3.03355 21.9999 3.04603 21.8648 3.06997C20.6786 3.27551 19.843 4.47812 19.8022 6.01234C18.9338 5.42123 17.9891 5.03384 17.1225 5.03384C16.594 5.03384 16.1193 5.17229 15.7116 5.4454C14.6582 6.12926 14.2954 7.52802 14.8648 8.70806C15.3653 9.80783 16.5328 10.4652 17.6101 10.963L17.6729 10.9891C17.8603 11.0583 18.04 11.12 18.216 11.1782H16.375C15.2701 11.1782 14.3711 12.0772 14.3711 13.1821V47.7779C14.3711 48.8829 15.2701 49.7819 16.375 49.7819H29.6041V50.996C29.6041 52.101 30.5031 53 31.6081 53H51.6254C52.7303 53 53.6293 52.101 53.6293 50.996V34.3524C53.6293 33.4276 52.9988 32.6492 52.1456 32.4193ZM31.3219 34.3524C31.3219 34.1972 31.453 34.0661 31.6082 34.0661H40.7579V41.8154H31.3219V34.3524ZM42.4756 34.0661H51.6254C51.7805 34.0661 51.9117 34.1972 51.9117 34.3524V41.8154H42.4756V34.0661ZM45.2374 29.0709C46.8378 27.8411 48.3419 27.1069 49.2612 27.1069C49.5795 27.1069 49.8059 27.1941 49.995 27.3896C50.7514 28.1719 50.6804 30.2934 50.6502 31.1994C50.6461 31.3226 50.6425 31.4325 50.6407 31.5262C50.1339 31.7934 43.3077 31.7925 42.7005 31.5627C42.9792 31.1198 43.8349 30.1485 45.2374 29.0709ZM40.5331 31.5627C39.9237 31.7934 33.0996 31.7934 32.5928 31.5262C32.5909 31.4325 32.5874 31.3227 32.5832 31.1994C32.5529 30.2935 32.4819 28.1719 33.2386 27.3895C33.4277 27.194 33.654 27.1068 33.9724 27.1068C34.8916 27.1068 36.3958 27.841 37.9962 29.0707C39.3986 30.1485 40.2544 31.1198 40.5331 31.5627ZM33.2333 6.6583C33.3973 6.6583 33.5334 6.69357 33.6491 6.76606L33.6639 6.7751C34.0393 6.99989 34.104 7.54588 33.9485 7.92297L33.9392 7.94667C33.7572 8.42808 33.1891 8.89826 32.2028 9.38299C30.894 9.88719 29.9225 10.0381 29.3955 10.0815C29.4429 9.96941 29.5063 9.83382 29.5913 9.67099L29.6016 9.65038C29.6058 9.64179 29.6105 9.63308 29.6148 9.6245C29.6537 9.55396 29.6929 9.48033 29.7321 9.40429C30.5264 8.00587 32.2176 6.6583 33.2333 6.6583ZM27.2501 5.15637C27.5168 4.86528 27.778 4.71767 28.0265 4.71767C28.0588 4.71767 28.0921 4.72008 28.1277 4.72523C28.4909 4.77665 28.8147 5.39638 28.8494 6.10659L28.8503 6.12239C28.8985 6.83809 28.672 7.7133 28.2105 8.60855C28.1721 8.67668 28.1362 8.74402 28.1022 8.81055C27.3735 9.91913 26.7403 10.0627 26.5791 10.0813L26.5483 10.0341L26.4155 10.0715C26.3339 9.99952 26.1477 9.70305 26.1043 8.92254C26.1132 8.71596 26.1107 8.50446 26.0965 8.28952C26.1589 7.14612 26.6223 5.84149 27.2501 5.15637ZM21.516 6.12708C21.5166 5.43589 21.8046 4.82371 22.1614 4.76188C22.5327 4.6958 22.8893 4.98013 23.1152 5.21912C23.7709 5.9126 24.2806 7.21151 24.3755 8.33097C24.3681 8.53984 24.3719 8.74482 24.3855 8.94487C24.3658 9.67935 24.2128 9.96185 24.1417 10.0537L24.0127 10.0833C23.8859 10.0743 23.1974 9.97112 22.3866 8.80814C22.3804 8.79772 22.3748 8.78753 22.3687 8.77711C22.3333 8.71241 22.2962 8.64748 22.2576 8.58267C21.7582 7.68307 21.5022 6.84404 21.516 6.14323V6.12708ZM16.426 7.99179L16.4141 7.96637C16.2439 7.61837 16.2853 7.11864 16.649 6.88458L16.6649 6.87416C16.7871 6.79159 16.9368 6.75151 17.1225 6.75151C18.193 6.75151 19.9269 8.04458 20.7615 9.42685C20.7966 9.4896 20.8329 9.5527 20.8697 9.61591C20.876 9.62759 20.8829 9.63927 20.8891 9.65095L20.901 9.67271C20.99 9.82993 21.0583 9.96288 21.1109 10.0742C20.5607 10.0235 19.5975 9.86577 18.2999 9.38952C17.6144 9.07106 16.692 8.58416 16.426 7.99179ZM16.0888 47.7779V13.1821C16.0888 13.027 16.2199 12.8959 16.375 12.8959H24.314V48.0642H16.375C16.2199 48.0642 16.0888 47.9332 16.0888 47.7779ZM26.0317 48.0642V12.8959H34.0345C34.1896 12.8959 34.3207 13.027 34.3207 13.1821V25.4065C34.2034 25.3951 34.0871 25.3892 33.9724 25.3892C33.1947 25.3892 32.514 25.668 32.0039 26.1955C30.741 27.5014 30.8227 29.9443 30.8666 31.2569C30.8719 31.4127 30.8765 31.5442 30.8765 31.6432C30.8765 31.8891 30.9288 32.1618 31.0878 32.4194C30.2347 32.6493 29.6042 33.4277 29.6042 34.3525V48.0643H26.0317V48.0642ZM31.3219 50.996V43.5331H40.7579V51.2823H31.6082C31.4529 51.2823 31.3219 51.1512 31.3219 50.996ZM51.6254 51.2823H42.4756V43.5331H51.9117V50.996C51.9117 51.1512 51.7807 51.2823 51.6254 51.2823Z" fill="black"/>
<path d="M40.8464 3.33008H39.1797V4.99674H40.8464V3.33008Z" fill="black"/>
<path d="M42.487 1.66992H40.8203V3.3366H42.487V1.66992Z" fill="black"/>
<path d="M44.1667 3.33008H42.5V4.99674H44.1667V3.33008Z" fill="black"/>
<path d="M42.487 5H40.8203V6.66666H42.487V5Z" fill="black"/>
<path d="M49.987 0.830078H48.3203V2.49674H49.987V0.830078Z" fill="black"/>
<path d="M43.3463 10H41.6797V11.6667H43.3463V10Z" fill="black"/>
<path d="M9.16666 9.16992H7.5V10.8366H9.16666V9.16992Z" fill="black"/>
<path d="M9.16666 12.5H7.5V14.1667H9.16666V12.5Z" fill="black"/>
<path d="M10.8464 10.8301H9.17969V12.4967H10.8464V10.8301Z" fill="black"/>
<path d="M7.48698 10.8301H5.82031V12.4967H7.48698V10.8301Z" fill="black"/>
<path d="M1.66666 5H0V6.66666H1.66666V5Z" fill="black"/>
<path d="M9.16666 0.830078H7.5V2.49674H9.16666V0.830078Z" fill="black"/>
</svg>
