<svg width="65" height="74" viewBox="0 0 65 74" fill="none" xmlns="http://www.w3.org/2000/svg">
<path d="M9.16666 33.1699H7.5V34.8366H9.16666V33.1699Z" fill="black"/>
<path d="M9.16666 36.5H7.5V38.1667H9.16666V36.5Z" fill="black"/>
<path d="M10.8464 34.8301H9.17969V36.4967H10.8464V34.8301Z" fill="black"/>
<path d="M7.48698 34.8301H5.82031V36.4967H7.48698V34.8301Z" fill="black"/>
<path d="M1.66666 29H0V30.6667H1.66666V29Z" fill="black"/>
<path d="M9.16666 24.8301H7.5V26.4967H9.16666V24.8301Z" fill="black"/>
<path d="M55.6667 2.5H54V4.16666H55.6667V2.5Z" fill="black"/>
<path d="M57.3073 0.839844H55.6406V2.50653H57.3073V0.839844Z" fill="black"/>
<path d="M58.987 2.5H57.3203V4.16666H58.987V2.5Z" fill="black"/>
<path d="M57.3073 4.16992H55.6406V5.83659H57.3073V4.16992Z" fill="black"/>
<path d="M64.8073 0H63.1406V1.66666H64.8073V0Z" fill="black"/>
<path d="M58.1667 48.1699H56.5V49.8366H58.1667V48.1699Z" fill="black"/>
<path d="M6 50.3628L25.0476 69.5357L56 24" stroke="black" stroke-width="2" stroke-linejoin="round"/>
</svg>
