<svg width="72" height="64" viewBox="0 0 72 64" fill="none" xmlns="http://www.w3.org/2000/svg">
<path d="M40.8464 3.33008H39.1797V4.99674H40.8464V3.33008Z" fill="black"/>
<path d="M42.487 1.66992H40.8203V3.3366H42.487V1.66992Z" fill="black"/>
<path d="M44.1667 3.33008H42.5V4.99674H44.1667V3.33008Z" fill="black"/>
<path d="M42.487 5H40.8203V6.66666H42.487V5Z" fill="black"/>
<path d="M49.987 0.830078H48.3203V2.49674H49.987V0.830078Z" fill="black"/>
<path d="M32.3463 0H30.6797V1.66666H32.3463V0Z" fill="black"/>
<path d="M9.16666 19.1699H7.5V20.8366H9.16666V19.1699Z" fill="black"/>
<path d="M9.16666 22.5H7.5V24.1667H9.16666V22.5Z" fill="black"/>
<path d="M10.8464 20.8301H9.17969V22.4967H10.8464V20.8301Z" fill="black"/>
<path d="M7.48698 20.8301H5.82031V22.4967H7.48698V20.8301Z" fill="black"/>
<path d="M19.6667 7H18V8.66666H19.6667V7Z" fill="black"/>
<path d="M27.1667 8.83008H25.5V10.4967H27.1667V8.83008Z" fill="black"/>
<path d="M38.5034 24.8262C31.5998 24.8222 26.0002 30.4153 25.9961 37.3189C25.9932 42.2918 28.9384 46.7935 33.4961 48.7826V54.8335C33.4961 56.2142 34.6154 57.3335 35.9961 57.3335V58.1668C35.9961 59.5475 37.1154 60.6668 38.4961 60.6668C39.8768 60.6668 40.9961 59.5475 40.9961 58.1668V57.3335C42.3768 57.3335 43.4961 56.2142 43.4961 54.8335V48.7826C48.0465 46.7926 50.9895 42.3 50.9961 37.3335C51.0002 30.4299 45.4069 24.8302 38.5034 24.8262ZM39.3294 58.1668C39.3294 58.627 38.9563 59.0001 38.4961 59.0001C38.0359 59.0001 37.6628 58.627 37.6628 58.1668V57.3335H39.3294V58.1668ZM40.9961 55.6668H35.9961C35.5359 55.6668 35.1628 55.2937 35.1628 54.8335H41.8294C41.8294 55.2937 41.4563 55.6668 40.9961 55.6668ZM41.8294 53.1668H35.1628V52.3335H41.8294V53.1668ZM41.8294 50.6668H35.1628V49.3685C37.3417 49.9885 39.6505 49.9885 41.8294 49.3685V50.6668ZM41.4203 47.7543L42.6544 39.1185L41.0044 38.8818L39.6886 48.0976C38.8963 48.1898 38.0959 48.1898 37.3036 48.0976L35.9878 38.8818L34.3378 39.1185L35.5719 47.7543C30.901 46.4414 27.6708 42.1853 27.6628 37.3335C27.657 31.3503 32.5027 26.4954 38.4857 26.4897C44.4688 26.484 49.3237 31.3296 49.3294 37.3126C49.3341 42.1735 46.1006 46.4422 41.4203 47.7543Z" fill="black"/>
<path d="M42.2059 34.9251C41.9715 34.8079 41.6954 34.8079 41.4609 34.9251L38.5001 36.4017L35.5393 34.9209C35.3048 34.8037 35.0287 34.8037 34.7943 34.9209L31.4609 36.5876L32.2059 38.0792L35.1668 36.5984L38.1276 38.0834C38.3621 38.2006 38.6381 38.2006 38.8726 38.0834L41.8334 36.5984L44.7943 38.0834L45.5393 36.5917L42.2059 34.9251Z" fill="black"/>
<path d="M70.8087 42.6547L70.8187 42.6464L67.4854 38.4797C67.1721 38.1202 66.6267 38.0828 66.2673 38.3962C66.2376 38.4221 66.2096 38.45 66.1838 38.4797L62.8505 42.6464L62.8605 42.6547C62.7392 42.7983 62.6713 42.9793 62.668 43.1672V62.3339C62.668 63.2544 63.4141 64.0005 64.3346 64.0005H69.3346C70.2552 64.0005 71.0013 63.2544 71.0013 62.3339V43.1672C70.9979 42.9793 70.9299 42.7982 70.8087 42.6547ZM66.8345 40.3339L68.4345 42.3339H65.2345L66.8345 40.3339ZM69.3345 62.3339H64.3345V44.0005H69.3345V62.3339Z" fill="black"/>
<path d="M57.3333 14H18.6667C18.2987 14 18 14.3725 18 14.8333V63.1667C18 63.6275 18.2987 64 18.6667 64H57.3333C57.7013 64 58 63.6275 58 63.1667V14.8333C58 14.3725 57.7013 14 57.3333 14ZM56.6667 62.3333H19.3333V15.6667H56.6667V62.3333Z" fill="black"/>
</svg>
