<svg width="32" height="32" viewBox="0 0 32 32" fill="none" xmlns="http://www.w3.org/2000/svg">
<g clip-path="url(#clip0)">
<path d="M30.7238 25.053L31.8598 23.6006C32.0156 23.4014 32.0441 23.1309 31.9333 22.9036C31.8225 22.6763 31.5918 22.5321 31.3389 22.5321H25.4532L28.7342 20.296C28.7434 20.2898 28.7504 20.2817 28.7591 20.2751C28.9502 20.1593 29.0792 19.9511 29.0792 19.7113V12.2894C29.0792 11.9243 28.7832 11.6282 28.4181 11.6282H12.6333L14.9881 9.29949C14.9921 9.29552 14.9947 9.29076 14.9987 9.28666C15.1262 9.1662 15.2067 8.99654 15.2067 8.80732V5.08791C15.2067 4.72282 14.9106 4.42676 14.5455 4.42676H0.661241C0.408414 4.42676 0.177671 4.57089 0.0668608 4.7982C-0.0439491 5.0255 -0.0153871 5.29605 0.140381 5.49519L1.27638 6.94762L0.140514 8.40005C-0.0152549 8.59919 -0.0438169 8.86973 0.066993 9.09704C0.177671 9.32435 0.408414 9.46861 0.661241 9.46861H6.67222L3.37556 11.634C3.35017 11.6507 3.32861 11.6708 3.30627 11.6902C3.07936 11.795 2.92108 12.0231 2.92108 12.2894V19.7114C2.92108 20.0765 3.21714 20.3725 3.58223 20.3725H19.5899L17.0114 22.7029C17.0073 22.7066 17.0045 22.7111 17.0005 22.7149C16.9831 22.7314 16.9679 22.7498 16.9523 22.7682C16.9395 22.7833 16.9258 22.7978 16.9146 22.8138C16.902 22.8317 16.8921 22.851 16.8813 22.87C16.871 22.8884 16.8597 22.9062 16.8513 22.9254C16.8428 22.9443 16.8371 22.9645 16.8305 22.9844C16.8235 23.0053 16.8158 23.0259 16.8109 23.0473C16.8067 23.0662 16.805 23.0859 16.8023 23.1055C16.7992 23.1294 16.7957 23.1532 16.7951 23.1774C16.7949 23.1829 16.7935 23.188 16.7935 23.1936V26.9131C16.7935 27.2782 17.0895 27.5743 17.4546 27.5743H31.3389C31.5918 27.5743 31.8225 27.4301 31.9333 27.2028C32.0441 26.9755 32.0156 26.705 31.8598 26.5058L30.7238 25.053ZM2.63665 7.35502C2.82389 7.11568 2.82389 6.77968 2.63665 6.54034L2.0178 5.74907H13.8844V8.1463H2.01767L2.63665 7.35502ZM12.9367 9.46861L10.7529 11.6282H5.79301L9.08081 9.46861H12.9367ZM4.24326 12.9505H27.7568V19.0502H4.24326V12.9505ZM21.5558 20.3725H26.2738L23.1428 22.5064C23.1316 22.514 23.1229 22.5238 23.1122 22.5321H19.1723L21.5285 20.4027C21.5389 20.3933 21.5463 20.3822 21.5558 20.3725ZM18.1158 26.2516V23.8543H29.9825L29.3637 24.6456C29.1764 24.8849 29.1764 25.2209 29.3637 25.4603L29.9825 26.2516H18.1158Z" fill="black"/>
</g>
<defs>
<clipPath id="clip0">
<rect width="32" height="32" fill="white"/>
</clipPath>
</defs>
</svg>
