<svg width="32" height="32" viewBox="0 0 32 32" fill="none" xmlns="http://www.w3.org/2000/svg">
<g clip-path="url(#clip0)">
<path d="M15.9609 5.82324H15.967C16.312 5.82324 16.5891 5.54321 16.5891 5.19824C16.5891 4.85303 16.3062 4.57324 15.9609 4.57324C15.616 4.57324 15.3359 4.85303 15.3359 5.19824C15.3359 5.54321 15.616 5.82324 15.9609 5.82324Z" fill="black"/>
<path d="M31.4877 3.73293C31.3029 2.98049 30.8375 2.35646 30.1776 1.9756C29.6796 1.68776 29.1024 1.56642 28.5302 1.6194C28.2902 1.09743 27.8961 0.658223 27.3981 0.370625C26.7382 -0.0102335 25.965 -0.101298 25.2211 0.114766C24.4865 0.327901 23.8681 0.816182 23.4796 1.48928C22.9377 2.428 22.9867 3.77809 23.6254 5.50246C23.9215 6.30153 24.2746 6.99025 24.486 7.37501L23.6706 8.79103C23.5187 8.55421 23.3566 8.32277 23.1816 8.09816C21.9887 6.56666 20.3078 5.43581 18.4486 4.91359C18.1161 4.81984 17.7714 5.01393 17.6779 5.34621C17.5846 5.67848 17.7782 6.02345 18.1105 6.11696C21.446 7.05372 23.8083 10.1299 23.8551 13.5974C23.8598 13.9392 24.1398 14.2139 24.4816 14.2139C26.2838 14.2139 27.7499 15.6799 27.7499 17.4822C27.7499 19.2842 26.2838 20.7505 24.4816 20.7505H7.46624C5.66424 20.7505 4.19793 19.2842 4.19793 17.4822C4.19793 15.6799 5.66424 14.2139 7.4677 14.2139C7.8095 14.2139 8.08806 13.9392 8.09246 13.5974C8.10247 12.8777 8.20964 12.1777 8.40154 11.5112L9.01677 12.5796C9.13249 12.7805 9.3427 12.8928 9.55901 12.8928C9.66472 12.8928 9.7719 12.866 9.87029 12.8093C10.1694 12.637 10.2721 12.2549 10.1 11.9558L8.99333 10.0344C9.94304 8.22438 11.5844 6.81251 13.6364 6.17628C13.9662 6.07399 14.1506 5.72389 14.0483 5.3943C13.9462 5.06447 13.5961 4.88014 13.2663 4.98219C11.4379 5.54909 9.85686 6.65919 8.69402 8.19191C8.54631 8.38673 8.40789 8.58692 8.27703 8.79078L7.46184 7.37501C7.67302 6.99025 8.02629 6.30153 8.32219 5.5027C8.96111 3.77834 9.01018 2.428 8.46819 1.48928C8.07976 0.816182 7.46111 0.328145 6.72674 0.114766C5.98284 -0.101054 5.20989 -0.0104777 4.54974 0.370625C4.05169 0.658223 3.65765 1.09743 3.41766 1.6194C2.84564 1.56667 2.26824 1.68801 1.7702 1.9756C1.11029 2.35646 0.644955 2.98049 0.460141 3.73293C0.277524 4.47536 0.390805 5.25514 0.779476 5.92824C1.32147 6.86696 2.51531 7.49952 4.32806 7.80861C5.16717 7.95143 5.93987 7.99025 6.37908 7.99977L7.5844 10.0923C7.18767 11.0112 6.945 11.9907 6.86834 13.0034C4.65838 13.2966 2.94793 15.1934 2.94793 17.4822C2.94793 19.7002 4.55486 21.5486 6.66546 21.9277L8.84001 30.2109C9.11663 31.2644 10.0705 32 11.1593 32H20.7724C21.8615 32 22.8151 31.2644 23.0917 30.2109L25.2655 21.9309C27.3842 21.5583 28.9997 19.7061 28.9997 17.4822C28.9997 15.1939 27.2897 13.2974 25.0793 13.0034C25.0028 11.9893 24.7611 11.0095 24.3642 10.0908L25.5685 7.99977C26.0077 7.99025 26.7804 7.95167 27.6195 7.80861C29.4323 7.49977 30.6261 6.8672 31.1681 5.92824C31.5568 5.25514 31.6703 4.47536 31.4877 3.73293ZM1.86199 5.30324C1.63543 4.9109 1.56854 4.459 1.67376 4.03127C1.77655 3.61281 2.03265 3.26711 2.39495 3.05812C2.62811 2.9236 2.88641 2.85524 3.15081 2.85524C3.31365 2.85524 3.47894 2.88112 3.64178 2.93337C3.8095 2.98708 3.99236 2.96755 4.14495 2.87941C4.29778 2.79152 4.40594 2.64308 4.44329 2.47072C4.53851 2.032 4.79827 1.67067 5.17474 1.45314C5.53704 1.24416 5.96429 1.19509 6.3781 1.3152C6.80144 1.43801 7.15911 1.72194 7.38567 2.11428C8.03899 3.24562 6.98308 5.64943 6.37981 6.75123C5.12469 6.72389 2.51702 6.43776 1.86199 5.30324ZM16.591 30.75V22.0002H20.0902L18.3073 30.75H16.591ZM13.6247 30.75L11.8417 22.0002H15.341V30.75H13.6247ZM10.049 29.8935L7.97673 22.0002H10.5661L12.349 30.75H11.1596C10.6381 30.75 10.1813 30.3979 10.049 29.8935ZM21.883 29.8935C21.7504 30.3977 21.2939 30.75 20.7724 30.75H19.5829L21.3659 22.0002H23.9552L21.883 29.8935ZM30.0858 5.30324C29.4325 6.43458 26.8234 6.72218 25.5675 6.75075C24.9643 5.64845 23.9088 3.24538 24.5619 2.11403C24.7885 1.7217 25.1464 1.43801 25.5695 1.31496C25.7179 1.27199 25.8681 1.25075 26.0163 1.25075C26.2814 1.25075 26.5407 1.31911 26.7729 1.45314C27.1493 1.67043 27.4091 2.032 27.5043 2.47072C27.5417 2.64284 27.6501 2.79128 27.8026 2.87941C27.9552 2.96755 28.1378 2.98708 28.3058 2.93337C28.7333 2.79616 29.1762 2.84059 29.5526 3.05788C29.9149 3.26711 30.171 3.61281 30.2738 4.03102C30.3791 4.459 30.3124 4.9109 30.0858 5.30324Z" fill="black"/>
</g>
<defs>
<clipPath id="clip0">
<rect width="32" height="32" fill="white"/>
</clipPath>
</defs>
</svg>
