<svg width="62" height="60" viewBox="0 0 62 60" fill="none" xmlns="http://www.w3.org/2000/svg">
<path d="M40.8464 3.33008H39.1797V4.99674H40.8464V3.33008Z" fill="black"/>
<path d="M42.487 1.66992H40.8203V3.3366H42.487V1.66992Z" fill="black"/>
<path d="M44.1667 3.33008H42.5V4.99674H44.1667V3.33008Z" fill="black"/>
<path d="M42.487 5H40.8203V6.66666H42.487V5Z" fill="black"/>
<path d="M49.987 0.830078H48.3203V2.49674H49.987V0.830078Z" fill="black"/>
<path d="M9.16666 9.16992H7.5V10.8366H9.16666V9.16992Z" fill="black"/>
<path d="M9.16666 12.5H7.5V14.1667H9.16666V12.5Z" fill="black"/>
<path d="M10.8464 10.8301H9.17969V12.4967H10.8464V10.8301Z" fill="black"/>
<path d="M7.48698 10.8301H5.82031V12.4967H7.48698V10.8301Z" fill="black"/>
<path d="M1.66666 5H0V6.66666H1.66666V5Z" fill="black"/>
<path d="M9.16666 0.830078H7.5V2.49674H9.16666V0.830078Z" fill="black"/>
<path d="M31.5247 24.1667H51.1672C51.6272 24.1667 52.0006 23.7942 52.0006 23.3333C52.0006 22.8725 51.6272 22.5 51.1672 22.5H31.5247C31.0647 22.5 30.6914 22.8725 30.6914 23.3333C30.6914 23.7942 31.0647 24.1667 31.5247 24.1667Z" fill="black"/>
<path d="M31.5247 36.6667H51.1672C51.6272 36.6667 52.0006 36.2942 52.0006 35.8333C52.0006 35.3725 51.6272 35 51.1672 35H31.5247C31.0647 35 30.6914 35.3725 30.6914 35.8333C30.6914 36.2942 31.0647 36.6667 31.5247 36.6667Z" fill="black"/>
<path d="M31.5247 49.1667H51.1672C51.6272 49.1667 52.0006 48.7942 52.0006 48.3333C52.0006 47.8725 51.6272 47.5 51.1672 47.5H31.5247C31.0647 47.5 30.6914 47.8725 30.6914 48.3333C30.6914 48.7942 31.0647 49.1667 31.5247 49.1667Z" fill="black"/>
<path d="M57.2833 10H15.7167C15.3211 10 15 10.3725 15 10.8333V59.1667C15 59.6275 15.3211 60 15.7167 60H57.2833C57.6789 60 58 59.6275 58 59.1667V10.8333C58 10.3725 57.6789 10 57.2833 10ZM56.5667 58.3333H16.4333V11.6667H56.5667V58.3333Z" fill="black"/>
<path d="M22.4188 25.3953L24.4421 24.3312L26.4655 25.3953L26.0796 23.142L27.7163 21.5453L25.4538 21.217L24.4421 19.167L23.4305 21.217L21.168 21.5453L22.8055 23.142L22.4188 25.3953Z" fill="black"/>
<path d="M22.4188 37.9637L24.4421 36.8995L26.4655 37.9637L26.0796 35.7104L27.7163 34.1145L25.4538 33.7854L24.4421 31.7354L23.4305 33.7854L21.168 34.1145L22.8055 35.7104L22.4188 37.9637Z" fill="black"/>
<path d="M22.4188 50.8328L24.4421 49.7687L26.4655 50.8328L26.0796 48.5795L27.7163 46.9837L25.4538 46.6545L24.4421 44.6045L23.4305 46.6545L21.168 46.9837L22.8055 48.5795L22.4188 50.8328Z" fill="black"/>
</svg>
