<svg width="70" height="59" viewBox="0 0 70 59" fill="none" xmlns="http://www.w3.org/2000/svg">
<path d="M19.6667 2.5H18V4.16666H19.6667V2.5Z" fill="black"/>
<path d="M21.3073 0.839844H19.6406V2.50653H21.3073V0.839844Z" fill="black"/>
<path d="M22.987 2.5H21.3203V4.16666H22.987V2.5Z" fill="black"/>
<path d="M21.3073 4.16992H19.6406V5.83659H21.3073V4.16992Z" fill="black"/>
<path d="M28.8073 0H27.1406V1.66666H28.8073V0Z" fill="black"/>
<path d="M9.16666 20.3398H7.5V22.0065H9.16666V20.3398Z" fill="black"/>
<path d="M9.16666 23.6699H7.5V25.3366H9.16666V23.6699Z" fill="black"/>
<path d="M10.8464 22H9.17969V23.6667H10.8464V22Z" fill="black"/>
<path d="M7.48698 22H5.82031V23.6667H7.48698V22Z" fill="black"/>
<path d="M1.66666 16.1699H0V17.8366H1.66666V16.1699Z" fill="black"/>
<path d="M9.16666 12H7.5V13.6667H9.16666V12Z" fill="black"/>
<path d="M36.5034 19.8262C29.5998 19.8222 24.0002 25.4153 23.9961 32.3189C23.9932 37.2918 26.9384 41.7935 31.4961 43.7826V49.8335C31.4961 51.2142 32.6154 52.3335 33.9961 52.3335V53.1668C33.9961 54.5475 35.1154 55.6668 36.4961 55.6668C37.8768 55.6668 38.9961 54.5475 38.9961 53.1668V52.3335C40.3768 52.3335 41.4961 51.2142 41.4961 49.8335V43.7826C46.0465 41.7926 48.9895 37.3 48.9961 32.3335C49.0002 25.4299 43.4069 19.8302 36.5034 19.8262ZM37.3294 53.1668C37.3294 53.627 36.9563 54.0001 36.4961 54.0001C36.0359 54.0001 35.6628 53.627 35.6628 53.1668V52.3335H37.3294V53.1668ZM38.9961 50.6668H33.9961C33.5359 50.6668 33.1628 50.2937 33.1628 49.8335H39.8294C39.8294 50.2937 39.4563 50.6668 38.9961 50.6668ZM39.8294 48.1668H33.1628V47.3335H39.8294V48.1668ZM39.8294 45.6668H33.1628V44.3685C35.3417 44.9885 37.6505 44.9885 39.8294 44.3685V45.6668ZM39.4203 42.7543L40.6544 34.1185L39.0044 33.8818L37.6886 43.0976C36.8963 43.1898 36.0959 43.1898 35.3036 43.0976L33.9878 33.8818L32.3378 34.1185L33.5719 42.7543C28.901 41.4414 25.6708 37.1853 25.6628 32.3335C25.657 26.3503 30.5027 21.4954 36.4857 21.4897C42.4688 21.484 47.3237 26.3296 47.3294 32.3126C47.3341 37.1735 44.1006 41.4422 39.4203 42.7543Z" fill="black"/>
<path d="M40.2059 29.9251C39.9715 29.8079 39.6954 29.8079 39.4609 29.9251L36.5001 31.4017L33.5393 29.9209C33.3048 29.8037 33.0287 29.8037 32.7943 29.9209L29.4609 31.5876L30.2059 33.0792L33.1668 31.5984L36.1276 33.0834C36.3621 33.2006 36.6381 33.2006 36.8726 33.0834L39.8334 31.5984L42.7943 33.0834L43.5393 31.5917L40.2059 29.9251Z" fill="black"/>
<path d="M68.8087 37.6547L68.8187 37.6464L65.4854 33.4797C65.1721 33.1202 64.6267 33.0828 64.2673 33.3962C64.2376 33.4221 64.2096 33.45 64.1838 33.4797L60.8505 37.6464L60.8605 37.6547C60.7392 37.7983 60.6713 37.9793 60.668 38.1672V57.3339C60.668 58.2544 61.4141 59.0005 62.3346 59.0005H67.3346C68.2552 59.0005 69.0013 58.2544 69.0013 57.3339V38.1672C68.9979 37.9793 68.9299 37.7982 68.8087 37.6547ZM64.8345 35.3339L66.4345 37.3339H63.2345L64.8345 35.3339ZM67.3345 57.3339H62.3345V39.0005H67.3345V57.3339Z" fill="black"/>
<path d="M55.3333 9H16.6667C16.2987 9 16 9.3725 16 9.83333V58.1667C16 58.6275 16.2987 59 16.6667 59H55.3333C55.7013 59 56 58.6275 56 58.1667V9.83333C56 9.3725 55.7013 9 55.3333 9ZM54.6667 57.3333H17.3333V10.6667H54.6667V57.3333Z" fill="black"/>
</svg>
