<svg width="64" height="61" viewBox="0 0 64 61" fill="none" xmlns="http://www.w3.org/2000/svg">
<g clip-path="url(#clip0)">
<path d="M59.7702 20.2185H54.0433C54.0949 20.0468 54.1227 19.8635 54.1227 19.6667C54.1227 19.5285 54.1294 19.3295 54.1371 19.0991C54.1987 17.2597 54.3134 13.8357 52.5943 12.058C51.9151 11.3561 51.043 11 50.002 11C47.3221 11 43.928 13.4584 42.5931 14.5153C42.0765 14.9242 40.0744 16.5539 38.9982 18.0576C37.9222 16.5539 35.9199 14.9242 35.4034 14.5153C34.0686 13.4584 30.6743 11 27.9944 11C26.9534 11 26.0812 11.3561 25.4022 12.0582C23.6832 13.8358 23.7979 17.2598 23.8594 19.0992C23.867 19.3296 23.8738 19.5285 23.8738 19.6668C23.8738 19.8636 23.9015 20.0469 23.9531 20.2186H18.2262C17.0677 20.2186 16.125 21.1613 16.125 22.3198V27.5281C16.125 28.6866 17.0677 29.6293 18.2262 29.6293H19.9134V51.7489C19.9134 52.6427 20.6405 53.3698 21.5343 53.3698H33.9553V60.0255C33.9553 60.2519 34.0313 60.4714 34.1694 60.6435C34.3512 60.8701 34.6223 61.0001 34.9135 61.0001C35.0859 61 35.2578 60.9533 35.4113 60.8644L38.9981 58.7852L42.5856 60.8649C42.7385 60.9533 42.9104 61.0001 43.0828 61.0001C43.6201 61.0001 44.041 60.572 44.041 60.0255V53.3698H56.462C57.3558 53.3698 58.0829 52.6427 58.0829 51.7489V29.6291H59.7701C60.9287 29.6291 61.8713 28.6865 61.8713 27.5279V22.3197C61.8714 21.1612 60.9288 20.2185 59.7702 20.2185ZM43.9016 15.7779C46.3018 13.9139 48.5822 12.801 50.002 12.801C50.5512 12.801 50.9636 12.9629 51.2996 13.3102C52.4877 14.5388 52.382 17.6924 52.337 19.039C52.3289 19.2856 52.3217 19.4983 52.3217 19.6668C52.3217 19.6687 52.3217 19.6704 52.3217 19.672C52.2825 19.7146 52.011 19.957 50.8005 20.094C49.7811 20.2093 42.646 20.2093 41.6269 20.094C40.4743 19.9636 40.1731 19.7376 40.1132 19.6795C40.2783 19.1907 41.6203 17.5497 43.9016 15.7779ZM27.1961 20.0939C25.9854 19.9569 25.7139 19.7146 25.6748 19.6718C25.6748 19.6703 25.6748 19.6686 25.6748 19.6667C25.6748 19.4983 25.6676 19.2855 25.6594 19.0388C25.6144 17.6923 25.5087 14.5388 26.6968 13.3101C27.0329 12.9629 27.4452 12.801 27.9944 12.801C29.4142 12.801 31.6947 13.9139 34.0949 15.7779C36.3762 17.5497 37.7182 19.1907 37.8835 19.6794C37.8235 19.7375 37.5222 19.9635 36.3698 20.0939C35.3504 20.2091 28.2154 20.2091 27.1961 20.0939ZM18.2262 27.8281C18.0635 27.8281 17.926 27.6906 17.926 27.5279V22.3197C17.926 22.157 18.0635 22.0195 18.2262 22.0195H31.1025H32.4631H33.9553V27.8281H21.5343H18.2262ZM21.7144 51.5687V29.6291H33.9553V51.5687H21.7144ZM42.2401 58.5825L39.5541 57.0255C39.3889 56.9295 39.1967 56.8789 38.9982 56.8789C38.7997 56.8789 38.6075 56.9295 38.4427 57.0252L35.7564 58.5825V22.0195H42.2401V58.5825ZM56.282 51.5687H44.0411V29.6291H56.282V51.5687ZM60.0704 27.5279C60.0704 27.6906 59.9329 27.8281 59.7702 27.8281H56.4621H44.0411V22.0195H45.5333H46.8939H59.7702C59.9329 22.0195 60.0704 22.157 60.0704 22.3197V27.5279Z" fill="black"/>
</g>
<path d="M38.8464 3.33008H37.1797V4.99674H38.8464V3.33008Z" fill="black"/>
<path d="M40.487 1.66992H38.8203V3.3366H40.487V1.66992Z" fill="black"/>
<path d="M42.1667 3.33008H40.5V4.99674H42.1667V3.33008Z" fill="black"/>
<path d="M40.487 5H38.8203V6.66666H40.487V5Z" fill="black"/>
<path d="M47.987 0.830078H46.3203V2.49674H47.987V0.830078Z" fill="black"/>
<path d="M41.3463 10H39.6797V11.6667H41.3463V10Z" fill="black"/>
<path d="M9.16666 19.3398H7.5V21.0065H9.16666V19.3398Z" fill="black"/>
<path d="M9.16666 22.6699H7.5V24.3366H9.16666V22.6699Z" fill="black"/>
<path d="M10.8464 21H9.17969V22.6667H10.8464V21Z" fill="black"/>
<path d="M7.48698 21H5.82031V22.6667H7.48698V21Z" fill="black"/>
<path d="M1.66666 15.1699H0V16.8366H1.66666V15.1699Z" fill="black"/>
<path d="M9.16666 11H7.5V12.6667H9.16666V11Z" fill="black"/>
<defs>
<clipPath id="clip0">
<rect width="50" height="50" fill="white" transform="translate(14 11)"/>
</clipPath>
</defs>
</svg>
