<svg width="34" height="32" viewBox="0 0 34 32" fill="none" xmlns="http://www.w3.org/2000/svg">
<path d="M13.1218 6.92871C8.70355 6.92618 5.11979 10.5057 5.11719 14.9239C5.11532 18.1066 7.00023 20.9876 9.91713 22.2607V26.1331C9.91713 27.0168 10.6335 27.7331 11.5171 27.7331V28.2665C11.5171 29.1501 12.2334 29.8664 13.1171 29.8664C14.0007 29.8664 14.7171 29.1501 14.7171 28.2665V27.7331C15.6007 27.7331 16.3171 27.0168 16.3171 26.1331V22.2607C19.2293 20.9871 21.1128 18.1118 21.117 14.9333C21.1196 10.5151 17.54 6.93131 13.1218 6.92871ZM13.6504 28.2665C13.6504 28.561 13.4116 28.7998 13.1171 28.7998C12.8226 28.7998 12.5838 28.561 12.5838 28.2665V27.7331H13.6504V28.2665ZM14.7171 26.6665H11.5171C11.2226 26.6665 10.9838 26.4277 10.9838 26.1331H15.2504C15.2504 26.4277 15.0116 26.6665 14.7171 26.6665ZM15.2504 25.0665H10.9838V24.5332H15.2504V25.0665ZM15.2504 23.4665H10.9838V22.6356C12.3783 23.0324 13.8559 23.0324 15.2504 22.6356V23.4665ZM14.9885 21.6025L15.7784 16.0757L14.7224 15.9242L13.8803 21.8223C13.3732 21.8813 12.861 21.8813 12.3539 21.8223L11.5118 15.9242L10.4558 16.0757L11.2456 21.6025C8.25628 20.7623 6.18898 18.0384 6.18384 14.9333C6.18018 11.1041 9.28134 7.99703 13.1104 7.99337C16.9396 7.9897 20.0467 11.0909 20.0503 14.92C20.0533 18.0308 17.9839 20.7628 14.9885 21.6025Z" fill="#CFAF3E"/>
<path d="M15.4939 13.3919C15.3438 13.3169 15.1672 13.3169 15.0171 13.3919L13.1222 14.337L11.2273 13.3893C11.0772 13.3143 10.9006 13.3143 10.7505 13.3893L8.61719 14.4559L9.09398 15.4106L10.9889 14.4628L12.8838 15.4132C13.0339 15.4882 13.2105 15.4882 13.3606 15.4132L15.2555 14.4628L17.1504 15.4132L17.6272 14.4586L15.4939 13.3919Z" fill="#CFAF3E"/>
<path d="M33.7998 18.3385L33.8062 18.3332L31.6729 15.6666C31.4725 15.4365 31.1234 15.4126 30.8934 15.6131C30.8743 15.6297 30.8565 15.6476 30.8399 15.6666L28.7066 18.3332L28.713 18.3385C28.6354 18.4305 28.592 18.5463 28.5898 18.6665V30.933C28.5898 31.5222 29.0674 31.9997 29.6565 31.9997H32.8565C33.4456 31.9997 33.9231 31.5222 33.9231 30.933V18.6665C33.9209 18.5463 33.8774 18.4304 33.7998 18.3385ZM31.2564 16.8532L32.2804 18.1332H30.2324L31.2564 16.8532ZM32.8564 30.933H29.6564V19.1999H32.8564V30.933Z" fill="#CFAF3E"/>
<path d="M25.173 0H0.426662C0.191144 0 0 0.238397 0 0.533327V31.4663C0 31.7612 0.191144 31.9996 0.426662 31.9996H25.173C25.4085 31.9996 25.5997 31.7612 25.5997 31.4663V0.533327C25.5997 0.238397 25.4085 0 25.173 0ZM24.7464 30.933H0.853323V1.06665H24.7464V30.933Z" fill="#CFAF3E"/>
</svg>
