<svg width="17" height="13" viewBox="0 0 17 13" fill="none" xmlns="http://www.w3.org/2000/svg">
<circle cx="8.5" cy="6.5" r="6" stroke="#979797"/>
<path d="M7.87151 10H9.03251V8.857H7.87151V10ZM7.97051 8.227H8.94251C8.94251 7.444 8.98751 7.417 9.57251 6.913C10.1395 6.427 10.5535 6.076 10.5535 5.248C10.5535 4.177 9.75251 3.466 8.53751 3.466C7.13351 3.466 6.44951 4.339 6.39551 5.626H7.43051C7.44851 4.933 7.72751 4.348 8.51951 4.348C9.06851 4.348 9.45551 4.726 9.45551 5.248C9.45551 5.86 9.00551 6.184 8.59151 6.562C8.05151 7.066 7.97051 7.516 7.97051 8.227Z" fill="#979797"/>
</svg>
