<svg width="32" height="34" viewBox="0 0 32 34" fill="none" xmlns="http://www.w3.org/2000/svg">
<path d="M2.37086 9.98248H9.1495C8.87459 9.1856 8.73527 8.349 8.73527 7.48518C8.73527 3.3578 11.9941 0 15.9999 0C20.006 0 23.2651 3.3578 23.2651 7.48518C23.2651 8.349 23.1259 9.1856 22.8509 9.98248H29.6291C30.9365 9.98248 32 11.0783 32 12.4252V29.39C32 30.7369 30.9364 31.8327 29.6291 31.8327H21.9206L22.7974 32.805H24.1223C24.4264 32.805 24.6729 33.0589 24.6729 33.3722C24.6729 33.6854 24.4264 33.9394 24.1223 33.9394H7.87767C7.57363 33.9394 7.32713 33.6854 7.32713 33.3722C7.32713 33.0589 7.57363 32.805 7.87767 32.805H9.20264L10.0794 31.8327H2.37086C1.0635 31.8327 1.90735e-06 30.7369 1.90735e-06 29.39V12.4252C-7.24792e-05 11.0783 1.0635 9.98248 2.37086 9.98248ZM30.8989 28.7633V13.0519H26.5037C26.5981 13.6437 26.6466 14.2446 26.6466 14.8464C26.6466 20.8949 21.8704 25.8157 15.9996 25.8157C10.1294 25.8157 5.35362 20.8949 5.35362 14.8464C5.35362 14.2446 5.40214 13.6437 5.49654 13.0519H1.10101V28.7633H30.8989ZM15.4492 15.5226C15.2651 15.5984 15.0959 15.712 14.9518 15.8609C14.6718 16.1493 14.5176 16.5331 14.5176 16.9416C14.5176 17.3501 14.6718 17.7339 14.9522 18.0228C15.0962 18.1715 15.2651 18.2849 15.4492 18.3606V15.5226ZM16.5502 14.1701C16.7346 14.0943 16.9041 13.9807 17.0487 13.8318C17.2586 13.6155 17.3978 13.3456 17.4543 13.0518H16.5502V14.1701ZM18.5671 13.0519C18.5023 13.6494 18.2457 14.2028 17.8272 14.634C17.4717 15.0002 17.0305 15.2459 16.5502 15.3527V18.3606C16.7346 18.2847 16.9041 18.1712 17.0487 18.0222C17.3286 17.7338 17.4829 17.35 17.4829 16.9415C17.4829 16.6283 17.7294 16.3743 18.0334 16.3743C18.3375 16.3743 18.584 16.6283 18.584 16.9415C18.584 17.653 18.3152 18.3217 17.8273 18.8244C17.4718 19.1906 17.0305 19.4363 16.5503 19.5431V20.0068C16.5503 20.32 16.3038 20.574 15.9998 20.574C15.6957 20.574 15.4492 20.32 15.4492 20.0068V19.5432C14.9687 19.4364 14.5278 19.1906 14.1732 18.8244C13.6853 18.3217 13.4166 17.653 13.4166 16.9416C13.4166 16.2302 13.6853 15.5615 14.1727 15.0593C14.5276 14.6927 14.9687 14.4468 15.4492 14.34V13.0519H9.33345C9.18576 13.6359 9.10979 14.2376 9.10979 14.8464C9.10979 18.7605 12.2006 21.9449 15.9997 21.9449C19.7994 21.9449 22.8907 18.7605 22.8907 14.8464C22.8907 14.2376 22.8147 13.636 22.667 13.0519H18.5671ZM15.9997 23.0792C11.5935 23.0792 8.0087 19.386 8.0087 14.8463C8.0087 14.2397 8.07418 13.639 8.20102 13.0518H6.61436C6.50895 13.642 6.45478 14.2436 6.45478 14.8463C6.45478 20.2693 10.7367 24.6812 15.9997 24.6812C21.2633 24.6812 25.5456 20.2693 25.5456 14.8463C25.5456 14.2436 25.4914 13.642 25.386 13.0518H23.7993C23.9262 13.639 23.9917 14.2396 23.9917 14.8463C23.9917 19.386 20.4065 23.0792 15.9997 23.0792ZM22.164 7.48518C22.164 3.98331 19.3988 1.13442 15.9999 1.13442C12.6013 1.13442 9.83635 3.98331 9.83635 7.48518C9.83635 8.35664 10.003 9.19505 10.3316 9.98248H11.0627C10.6937 9.21176 10.501 8.3645 10.501 7.48518C10.501 4.36092 12.9678 1.81923 15.9999 1.81923C19.0323 1.81923 21.4994 4.361 21.4994 7.48518C21.4994 8.36466 21.3066 9.21191 20.9374 9.98248H21.6687C21.9974 9.19505 22.164 8.35672 22.164 7.48518ZM16.477 6.84666C16.7164 6.68557 16.8753 6.40756 16.8753 6.09159C16.8753 5.77562 16.7164 5.49761 16.477 5.33652V6.84666ZM15.5227 9.63301V8.12333C15.2835 8.28442 15.1248 8.56235 15.1248 8.87817C15.1248 9.19399 15.2834 9.47192 15.5227 9.63301ZM15.5227 7.05879V5.33667C15.2835 5.49776 15.1248 5.77569 15.1248 6.09151C15.1248 6.36302 14.9112 6.58309 14.6476 6.58309C14.3841 6.58309 14.1705 6.36302 14.1705 6.09151C14.1705 5.22232 14.7447 4.48904 15.5227 4.27214V4.05251C15.5227 3.78101 15.7363 3.56093 15.9999 3.56093C16.2634 3.56093 16.477 3.78101 16.477 4.05251V4.27206C17.2552 4.48881 17.8296 5.22225 17.8296 6.09159C17.8296 6.96093 17.2552 7.69429 16.477 7.91112V9.63331C16.7164 9.47222 16.8753 9.19422 16.8753 8.87824C16.8753 8.60674 17.0889 8.38666 17.3524 8.38666C17.616 8.38666 17.8296 8.60674 17.8296 8.87824C17.8296 9.29049 17.7001 9.67196 17.4813 9.98256H19.6691C20.1465 9.24254 20.3984 8.38508 20.3984 7.48526C20.3984 4.98652 18.4253 2.95372 15.9999 2.95372C13.575 2.95372 11.6021 4.98659 11.6021 7.48526C11.6021 8.38477 11.8538 9.24224 12.3309 9.98256H14.5188C14.3001 9.67196 14.1706 9.29049 14.1706 8.87824C14.1705 8.00898 14.7447 7.27569 15.5227 7.05879ZM29.6291 11.1169H2.37086C1.84534 11.1169 1.39339 11.4475 1.20062 11.9175H30.7994C30.6066 11.4475 30.1547 11.1169 29.6291 11.1169ZM10.7056 32.805H21.2944L20.4176 31.8327H11.5825L10.7056 32.805ZM2.37086 30.6983H29.6291C30.1547 30.6983 30.6066 30.3676 30.7994 29.8977H1.20062C1.39339 30.3676 1.84527 30.6983 2.37086 30.6983Z" fill="#CFAF3E"/>
</svg>
