<svg width="48" height="48" viewBox="0 0 48 48" fill="none" xmlns="http://www.w3.org/2000/svg">
<rect width="48" height="48" fill="black"/>
<path d="M35.7924 34.7761L29.9588 28.9437C31.5236 27.145 32.4711 24.7982 32.4711 22.2333C32.4711 16.5871 27.8776 12 22.2355 12C16.5882 12 12 16.5925 12 22.2333C12 27.8741 16.5935 32.4665 22.2355 32.4665C24.8011 32.4665 27.1484 31.5193 28.9474 29.9548L34.7811 35.7871C34.9195 35.9255 35.1058 36 35.2868 36C35.4677 36 35.654 35.9308 35.7924 35.7871C36.0692 35.5104 36.0692 35.0528 35.7924 34.7761ZM13.4318 22.2333C13.4318 17.38 17.3812 13.4368 22.2302 13.4368C27.0845 13.4368 31.0286 17.3854 31.0286 22.2333C31.0286 27.0812 27.0845 31.035 22.2302 31.035C17.3812 31.035 13.4318 27.0865 13.4318 22.2333Z" fill="white"/>
</svg>
