<svg width="38" height="24" viewBox="0 0 38 24" fill="none" xmlns="http://www.w3.org/2000/svg">
<path d="M35.1968 10.1744L34.2168 6.24437C34.4847 6.18731 34.6858 5.949 34.6858 5.66348V5.02982C34.6858 3.65403 33.5692 2.53477 32.1969 2.53477H27.7329V1.22774C27.7329 0.550735 27.1835 0 26.5082 0H3.75299C3.07767 0 2.52831 0.550735 2.52831 1.22774V12.0001C2.52831 12.3282 2.7936 12.5942 3.12091 12.5942C3.44815 12.5942 3.71351 12.3282 3.71351 12.0001V1.22774C3.71351 1.20588 3.73118 1.18817 3.75299 1.18817H26.5081C26.5299 1.18817 26.5476 1.20588 26.5476 1.22774V12.0003C26.5476 12.3283 26.8129 12.5943 27.1402 12.5943C27.4674 12.5943 27.7328 12.3284 27.7328 12.0003V11.3268H34.7232C34.7238 11.3268 34.7242 11.327 34.7247 11.327C34.7253 11.327 34.7258 11.3269 34.7264 11.3269C35.5865 11.3275 36.3169 11.8935 36.5678 12.6734H34.7252C34.3979 12.6734 34.1326 12.9394 34.1326 13.2675V14.5348C34.1326 15.5612 34.9655 16.3962 35.9893 16.3962H36.6609V19.01H35.1115C34.6025 17.5367 33.2053 16.4753 31.5647 16.4753C29.9241 16.4753 28.5269 17.5367 28.018 19.01H27.7326V14.5347C27.7326 14.2067 27.4673 13.9407 27.14 13.9407C26.8128 13.9407 26.5474 14.2066 26.5474 14.5347V19.0099H14.2527C13.7437 17.5365 12.3466 16.4752 10.706 16.4752C9.06536 16.4752 7.66815 17.5365 7.15922 19.0099H3.75299C3.73118 19.0099 3.71351 18.9922 3.71351 18.9703V17.6634H6.28136C6.6086 17.6634 6.87397 17.3974 6.87397 17.0693C6.87397 16.7412 6.60868 16.4752 6.28136 16.4752H0.592604C0.265367 16.4752 0 16.7412 0 17.0693C0 17.3974 0.265293 17.6634 0.592604 17.6634H2.52838V18.9703C2.52838 19.6473 3.07774 20.1981 3.75306 20.1981H6.95402C6.95388 20.2113 6.95299 20.2244 6.95299 20.2376C6.95299 22.3122 8.63663 24 10.706 24C12.7753 24 14.459 22.3122 14.459 20.2376C14.459 20.2243 14.4581 20.2113 14.4579 20.1981H27.8128C27.8126 20.2113 27.8117 20.2244 27.8117 20.2376C27.8117 22.3122 29.4954 24 31.5647 24C33.6341 24 35.3177 22.3122 35.3177 20.2376C35.3177 20.2243 35.3168 20.2113 35.3167 20.1981H37.2536C37.5808 20.1981 37.8462 19.9321 37.8462 19.604V13.2674C37.8462 11.7029 36.6948 10.403 35.1968 10.1744ZM27.7329 3.72287H32.1969C32.9158 3.72287 33.5006 4.30917 33.5006 5.02982V5.0694H27.7329V3.72287ZM27.7329 10.1387V6.25749H32.9984L33.9663 10.1387H27.7329ZM10.706 22.8121C9.29007 22.8121 8.13812 21.6573 8.13812 20.2378C8.13812 18.8183 9.29007 17.6635 10.706 17.6635C12.1219 17.6635 13.2738 18.8183 13.2738 20.2378C13.2738 21.6573 12.1219 22.8121 10.706 22.8121ZM31.5649 22.8121C30.149 22.8121 28.997 21.6573 28.997 20.2378C28.997 18.8183 30.149 17.6635 31.5649 17.6635C32.9808 17.6635 34.1327 18.8183 34.1327 20.2378C34.1327 21.6573 32.9808 22.8121 31.5649 22.8121ZM36.6611 15.208H35.9895C35.6191 15.208 35.3179 14.906 35.3179 14.5347V13.8614H36.661V15.208H36.6611Z" fill="#CFAF3E"/>
<path d="M10.7061 19.0098C10.0308 19.0098 9.48145 19.5605 9.48145 20.2375C9.48145 20.9145 10.0308 21.4652 10.7061 21.4652C11.3814 21.4652 11.9308 20.9145 11.9308 20.2375C11.9308 19.5605 11.3814 19.0098 10.7061 19.0098Z" fill="#CFAF3E"/>
<path d="M31.5645 19.0098C30.8892 19.0098 30.3398 19.5605 30.3398 20.2375C30.3398 20.9145 30.8892 21.4652 31.5645 21.4652C32.2398 21.4652 32.7892 20.9145 32.7892 20.2375C32.7892 19.5605 32.2398 19.0098 31.5645 19.0098Z" fill="#CFAF3E"/>
<path d="M24.6117 16.4756H15.7625C15.4353 16.4756 15.1699 16.7415 15.1699 17.0697C15.1699 17.3978 15.4352 17.6638 15.7625 17.6638H24.6117C24.939 17.6638 25.2043 17.3978 25.2043 17.0697C25.2043 16.7415 24.9391 16.4756 24.6117 16.4756Z" fill="#CFAF3E"/>
<path d="M9.44232 13.9409H1.85725C1.53002 13.9409 1.26465 14.2069 1.26465 14.535C1.26465 14.8631 1.52994 15.1291 1.85725 15.1291H9.44232C9.76955 15.1291 10.0349 14.8631 10.0349 14.535C10.0349 14.2069 9.76955 13.9409 9.44232 13.9409Z" fill="#CFAF3E"/>
<path d="M20.6059 5.87707C20.3746 5.64513 19.9993 5.64513 19.7679 5.87715L14.4981 11.16L11.7567 8.41177C11.5253 8.17975 11.1501 8.17975 10.9187 8.41177C10.6873 8.64379 10.6873 9.01986 10.9187 9.25188L14.0792 12.4202C14.1948 12.5363 14.3465 12.5942 14.4981 12.5942C14.6497 12.5942 14.8015 12.5363 14.9171 12.4202L20.6059 6.71725C20.8373 6.48516 20.8373 6.10909 20.6059 5.87707Z" fill="#CFAF3E"/>
</svg>
