<svg width="25" height="24" viewBox="0 0 25 24" fill="none" xmlns="http://www.w3.org/2000/svg">
<path d="M23.6058 8.08211H14.1931V0.936324C14.1931 0.419988 13.773 0 13.2567 0H11.4826C10.9663 0 10.5463 0.420036 10.5463 0.936324V8.08211H1.13346C0.508508 8.08211 0 8.59057 0 9.21562V11.6591C0 12.2842 0.508508 12.7926 1.13346 12.7926H1.29654L2.57395 21.8712C2.74471 23.0848 3.79772 24 5.02328 24H19.7159C20.9415 24 21.9945 23.0848 22.1652 21.8712L23.4427 12.7925H23.6058C24.2308 12.7925 24.7392 12.2841 24.7392 11.6591V9.21557C24.7393 8.59057 24.2309 8.08211 23.6058 8.08211ZM11.5318 0.985609H13.2074V10.3984H11.5318V0.985609ZM21.1893 21.7339C21.0866 22.4639 20.4532 23.0144 19.716 23.0144H5.02328C4.28608 23.0144 3.65267 22.4639 3.54994 21.7339L2.29186 12.7925H22.4474L21.1893 21.7339ZM23.7537 11.6591C23.7537 11.7406 23.6873 11.8069 23.6058 11.8069H1.13346C1.05195 11.8069 0.985609 11.7406 0.985609 11.6591V9.21557C0.985609 9.13406 1.05195 9.06772 1.13346 9.06772H10.5462V10.4476C10.5462 10.9639 10.9663 11.3839 11.4826 11.3839H13.2567C13.773 11.3839 14.193 10.9639 14.193 10.4476V9.06772H23.6058C23.6873 9.06772 23.7536 9.13406 23.7536 9.21557V11.6591H23.7537Z" fill="black"/>
<path d="M5.32288 13.9463C5.0507 13.9463 4.83008 14.167 4.83008 14.4391V21.3385C4.83008 21.6106 5.0507 21.8313 5.32288 21.8313C5.59506 21.8313 5.81569 21.6106 5.81569 21.3385V14.4391C5.81574 14.167 5.59506 13.9463 5.32288 13.9463Z" fill="black"/>
<path d="M8.14124 13.9463C7.86906 13.9463 7.64844 14.167 7.64844 14.4391V21.3385C7.64844 21.6106 7.86906 21.8313 8.14124 21.8313C8.41342 21.8313 8.63405 21.6106 8.63405 21.3385V14.4391C8.63405 14.167 8.41342 13.9463 8.14124 13.9463Z" fill="black"/>
<path d="M10.9596 13.9463C10.6874 13.9463 10.4668 14.167 10.4668 14.4391V21.3385C10.4668 21.6106 10.6874 21.8313 10.9596 21.8313C11.2318 21.8313 11.4524 21.6106 11.4524 21.3385V14.4391C11.4524 14.167 11.2318 13.9463 10.9596 13.9463Z" fill="black"/>
<path d="M13.7789 13.9463C13.5068 13.9463 13.2861 14.167 13.2861 14.4391V21.3385C13.2861 21.6106 13.5068 21.8313 13.7789 21.8313C14.0511 21.8313 14.2717 21.6106 14.2717 21.3385V14.4391C14.2717 14.167 14.0511 13.9463 13.7789 13.9463Z" fill="black"/>
<path d="M16.5983 13.9463C16.3261 13.9463 16.1055 14.167 16.1055 14.4391V21.3385C16.1055 21.6106 16.3261 21.8313 16.5983 21.8313C16.8704 21.8313 17.0911 21.6106 17.0911 21.3385V14.4391C17.0911 14.167 16.8704 13.9463 16.5983 13.9463Z" fill="black"/>
<path d="M19.4166 13.9463C19.1445 13.9463 18.9238 14.167 18.9238 14.4391V14.8336C18.9238 15.1057 19.1445 15.3264 19.4166 15.3264C19.6888 15.3264 19.9094 15.1057 19.9094 14.8336V14.4391C19.9094 14.167 19.6888 13.9463 19.4166 13.9463Z" fill="black"/>
<path d="M19.4166 16.2139C19.1445 16.2139 18.9238 16.4345 18.9238 16.7067V21.3391C18.9238 21.6112 19.1445 21.8319 19.4166 21.8319C19.6888 21.8319 19.9094 21.6112 19.9094 21.3391V16.7067C19.9094 16.4345 19.6888 16.2139 19.4166 16.2139Z" fill="black"/>
</svg>
