<svg width="33" height="27" viewBox="0 0 33 27" fill="none" xmlns="http://www.w3.org/2000/svg">
<path d="M32.5572 27H0.442756C0.198177 27 0 26.7982 0 26.5491V14.0432C0 13.7942 0.198177 13.5923 0.442756 13.5923H23.0536L29.8556 0.243429C29.968 0.0222939 30.2354 -0.0641036 30.4524 0.050973L32.2186 0.984392C32.3229 1.03941 32.4012 1.13446 32.4368 1.24846C32.4722 1.36245 32.4618 1.48618 32.4076 1.59224L26.2931 13.5923H32.5572C32.8018 13.5923 33 13.7942 33 14.0432V26.5491C33 26.7982 32.8018 27 32.5572 27ZM0.885512 26.0981H32.1145V14.4942H25.8382L23.6106 18.8653C23.5923 18.916 23.5651 18.9634 23.5296 19.0052L20.7263 22.2995C20.592 22.4572 20.3694 22.5005 20.1877 22.4043C20.006 22.3084 19.9125 22.0979 19.9619 21.8955L20.9857 17.6947C20.9935 17.6507 21.0077 17.6077 21.0284 17.5671L22.5942 14.4942H0.885512V26.0981ZM21.7165 18.4389L21.2659 20.2882L22.4913 18.8483L21.7165 18.4389ZM22.5085 17.839L22.9992 18.0983L31.4178 1.57691L30.4375 1.05889L23.7439 14.1953C23.7372 14.2141 23.7294 14.2328 23.72 14.2508L22.0227 17.5823L22.5085 17.839ZM13.135 23.4828H3.68957C3.44499 23.4828 3.24682 23.2809 3.24682 23.0318C3.24682 22.7827 3.44499 22.5809 3.68957 22.5809H13.135C13.3795 22.5809 13.5777 22.7827 13.5777 23.0318C13.5777 23.2809 13.3795 23.4828 13.135 23.4828ZM13.135 20.6719H3.68957C3.44499 20.6719 3.24682 20.47 3.24682 20.2209C3.24682 19.9719 3.44499 19.77 3.68957 19.77H13.135C13.3795 19.77 13.5777 19.9719 13.5777 20.2209C13.5777 20.47 13.3795 20.6719 13.135 20.6719ZM13.135 17.8612H3.68957C3.44499 17.8612 3.24682 17.6593 3.24682 17.4102C3.24682 17.1611 3.44499 16.9593 3.68957 16.9593H13.135C13.3795 16.9593 13.5777 17.1611 13.5777 17.4102C13.5777 17.6593 13.3795 17.8612 13.135 17.8612Z" fill="#CFAF3E"/>
</svg>
