<svg width="32" height="32" viewBox="0 0 32 32" fill="none" xmlns="http://www.w3.org/2000/svg">
<path d="M32 14.9069H30.4491V7.84434C30.4491 6.15115 29.0577 4.77368 27.3473 4.77368H25.2468L23.0973 0.947646C22.7696 0.362928 22.1462 0 21.47 0C21.1549 0 20.8422 0.0804596 20.5661 0.23211L12.3166 4.77359H3.10178C1.39143 4.77359 0 6.15105 0 7.84424V28.9293C0 30.6225 1.39143 32 3.10178 32H27.3473C29.0577 32 30.4491 30.6225 30.4491 28.9293V22.737H32V14.9069ZM27.3473 6.00189C28.3026 6.00189 29.0831 6.72039 29.1879 7.63975H26.8566L25.9372 6.00189H27.3473ZM21.1697 1.30561C21.4607 1.14411 21.8522 1.25706 22.0128 1.54393L25.4372 7.63917H9.66395L21.1697 1.30561ZM29.2084 28.9293C29.2084 29.9451 28.3733 30.7718 27.3472 30.7718H3.10178C2.07571 30.7718 1.24066 29.9451 1.24066 28.9293V7.84434C1.24066 6.82856 2.07571 6.00189 3.10178 6.00189H10.0858L7.11053 7.63984H3.48953C3.14648 7.63984 2.86916 7.91495 2.86916 8.25399C2.86916 8.59303 3.14648 8.86814 3.48953 8.86814H4.87913H27.5465H29.2084V14.9075H24.6717C22.5649 14.9075 20.8503 16.605 20.8503 18.6905V18.9546C20.8503 21.0403 22.565 22.7377 24.6717 22.7377H29.2084V28.9293ZM30.7592 21.5088H30.4491H24.6717C23.2486 21.5088 22.091 20.3629 22.091 18.954V18.6899C22.091 17.281 23.2485 16.135 24.6717 16.135H30.4491H30.7592V21.5088ZM26.5718 18.8724C26.5718 19.6216 25.9589 20.2283 25.2021 20.2283C24.4453 20.2283 23.8324 19.6215 23.8324 18.8724C23.8324 18.1232 24.4453 17.5164 25.2021 17.5164C25.959 17.5163 26.5718 18.1237 26.5718 18.8724Z" fill="#CFAF3E"/>
</svg>
