<svg width="64" height="56" viewBox="0 0 64 56" fill="none" xmlns="http://www.w3.org/2000/svg">
<path d="M40.8464 3.33008H39.1797V4.99674H40.8464V3.33008Z" fill="black"/>
<path d="M42.487 1.66992H40.8203V3.3366H42.487V1.66992Z" fill="black"/>
<path d="M44.1667 3.33008H42.5V4.99674H44.1667V3.33008Z" fill="black"/>
<path d="M42.487 5H40.8203V6.66666H42.487V5Z" fill="black"/>
<path d="M49.987 0.830078H48.3203V2.49674H49.987V0.830078Z" fill="black"/>
<path d="M32.3463 0H30.6797V1.66666H32.3463V0Z" fill="black"/>
<path d="M9.16666 19.1699H7.5V20.8366H9.16666V19.1699Z" fill="black"/>
<path d="M9.16666 22.5H7.5V24.1667H9.16666V22.5Z" fill="black"/>
<path d="M10.8464 20.8301H9.17969V22.4967H10.8464V20.8301Z" fill="black"/>
<path d="M7.48698 20.8301H5.82031V22.4967H7.48698V20.8301Z" fill="black"/>
<path d="M1.66666 5H0V6.66666H1.66666V5Z" fill="black"/>
<path d="M9.16666 0.830078H7.5V2.49674H9.16666V0.830078Z" fill="black"/>
<g clip-path="url(#clip0)">
<path d="M63.1666 51.8661H19.8335C19.3735 51.8661 19 51.4934 19 51.0326V16.0327C19 15.5719 19.3735 15.1992 19.8335 15.1992H63.1666C63.6266 15.1992 64.0001 15.5719 64.0001 16.0327V51.0326C64.0001 51.4934 63.6266 51.8661 63.1666 51.8661ZM20.6666 50.1994H62.3334V16.8659H20.6666V50.1994Z" fill="black"/>
<path d="M19.8334 46.8657H14.8335C14.3735 46.8657 14 46.4934 14 46.0326V11.0327C14 10.5715 14.3735 10.1992 14.8335 10.1992H58.1666C58.6266 10.1992 59.0001 10.5715 59.0001 11.0327V16.0327C59.0001 16.4935 58.6266 16.8658 58.1666 16.8658H20.6666V46.0326C20.6666 46.4934 20.2935 46.8657 19.8334 46.8657ZM15.6666 45.1991H18.9999V16.0327C18.9999 15.5718 19.3734 15.1991 19.8334 15.1991H57.3334V11.8659H15.6666V45.1991Z" fill="black"/>
<path d="M63.1674 51.8659H40.8526C40.5241 51.8659 40.2266 51.6733 40.0927 51.3735C39.9584 51.0752 40.0118 50.7242 40.23 50.4793L53.3785 35.6874C53.6944 35.3308 54.3078 35.3308 54.6244 35.6874L63.7907 46.0001C63.9269 46.1527 64.0009 46.3491 64.0009 46.5532V51.0324C64.0009 51.4932 63.6274 51.8659 63.1674 51.8659ZM42.7084 50.1993H62.3343V46.8698L54.0011 37.4948L42.7084 50.1993Z" fill="black"/>
<path d="M40.8517 51.8659H19.8335C19.3735 51.8659 19 51.4932 19 51.0324V37.1781C19 36.974 19.0751 36.7776 19.211 36.625L30.0443 24.4374C30.3602 24.0808 30.9736 24.0808 31.2902 24.4374L47.9566 43.1874C48.2377 43.5033 48.2377 43.9782 47.9566 44.2941L41.4751 51.5859C41.3167 51.764 41.0901 51.8659 40.8517 51.8659ZM20.6666 50.1992H40.4775L46.2182 43.7406L30.6669 26.2448L20.6666 37.4948V50.1992Z" fill="black"/>
<path d="M48.1668 31.0324C45.8692 31.0324 44 29.1632 44 26.866C44 24.5684 45.8692 22.6992 48.1668 22.6992C50.4644 22.6992 52.3336 24.5684 52.3336 26.866C52.3336 29.1632 50.4644 31.0324 48.1668 31.0324ZM48.1668 24.3659C46.7885 24.3659 45.6666 25.4874 45.6666 26.866C45.6666 28.2443 46.7885 29.3658 48.1668 29.3658C49.545 29.3658 50.6666 28.2443 50.6666 26.866C50.6666 25.4874 49.545 24.3659 48.1668 24.3659Z" fill="black"/>
</g>
<defs>
<clipPath id="clip0">
<rect width="50" height="50" fill="white" transform="translate(14 6)"/>
</clipPath>
</defs>
</svg>
