<svg width="50" height="54" viewBox="0 0 50 54" fill="none" xmlns="http://www.w3.org/2000/svg">
<path d="M40.8464 3.33008H39.1797V4.99674H40.8464V3.33008Z" fill="black"/>
<path d="M42.487 1.66992H40.8203V3.3366H42.487V1.66992Z" fill="black"/>
<path d="M44.1667 3.33008H42.5V4.99674H44.1667V3.33008Z" fill="black"/>
<path d="M42.487 5H40.8203V6.66666H42.487V5Z" fill="black"/>
<path d="M49.987 0.830078H48.3203V2.49674H49.987V0.830078Z" fill="black"/>
<path d="M43.3463 10H41.6797V11.6667H43.3463V10Z" fill="black"/>
<path d="M9.16666 9.16992H7.5V10.8366H9.16666V9.16992Z" fill="black"/>
<path d="M9.16666 12.5H7.5V14.1667H9.16666V12.5Z" fill="black"/>
<path d="M10.8464 10.8301H9.17969V12.4967H10.8464V10.8301Z" fill="black"/>
<path d="M7.48698 10.8301H5.82031V12.4967H7.48698V10.8301Z" fill="black"/>
<path d="M1.66666 5H0V6.66666H1.66666V5Z" fill="black"/>
<path d="M9.16666 0.830078H7.5V2.49674H9.16666V0.830078Z" fill="black"/>
<path fill-rule="evenodd" clip-rule="evenodd" d="M49.9999 27.3333V30.6666C49.9964 31.0515 49.7263 31.3825 49.3499 31.4633C50.396 32.992 50.158 35.0575 48.7916 36.3083L39.7299 44.6141C39.5762 44.755 39.3751 44.8332 39.1666 44.8332H22.7666L17.9516 48.2732L18.0891 48.4107C18.4144 48.7362 18.4144 49.2636 18.0891 49.5891L13.9225 53.7557C13.5971 54.081 13.0696 54.081 12.7441 53.7557L0.244166 41.2557C-0.0811456 40.9303 -0.0811456 40.4028 0.244166 40.0774L4.41082 35.9108C4.73624 35.5855 5.26374 35.5855 5.58915 35.9108L6.66665 36.9883L10.2441 33.4108C10.4004 33.2545 10.6123 33.1666 10.8333 33.1666H23.1983L28.1983 31.4999H0.833332C0.373124 31.4999 0 31.1268 0 30.6666V27.3333C0 26.8731 0.373124 26.5 0.833332 26.5H13.3333V9.83332C13.3333 9.37311 13.7064 8.99999 14.1666 8.99999H20.9258C19.8008 7.90562 19.1662 6.40281 19.1666 4.83333C19.1666 4.37312 19.5398 4 20 4C22.0507 4.00323 23.9491 5.08312 24.9999 6.84416C26.0508 5.08312 27.9492 4.00323 29.9999 4C30.4601 4 30.8333 4.37312 30.8333 4.83333C30.8337 6.40281 30.1991 7.90562 29.0741 8.99999H35.8333C36.2935 8.99999 36.6666 9.37311 36.6666 9.83332V26.5H49.1666C49.6268 26.5 49.9999 26.8731 49.9999 27.3333ZM29.0599 5.77333C28.6978 7.32197 27.4886 8.53114 25.9399 8.89332C26.3021 7.34468 27.5113 6.13552 29.0599 5.77333ZM24.0599 8.89332C22.5113 8.53114 21.3021 7.32197 20.94 5.77333C22.4886 6.13552 23.6978 7.34468 24.0599 8.89332ZM1.66666 28.1666V29.8333H48.3332V28.1666H1.66666ZM35.3091 31.4999C35.4252 31.6505 35.5284 31.8107 35.6173 31.9787C36.4816 33.6114 35.8586 35.6357 34.2258 36.4999H37.1833L42.8082 31.4999H35.3091ZM2.01166 40.6666L13.3333 51.9882L16.3216 48.9999L4.99999 37.6783L2.01166 40.6666ZM38.8424 43.1665L47.6666 35.0832C48.0973 34.6911 48.3419 34.1349 48.3398 33.5523C48.3357 32.4147 47.4101 31.4958 46.2724 31.4998H46.0999C45.5957 31.4996 45.1091 31.6847 44.7324 32.0198L38.0533 37.9565C37.9008 38.0918 37.7039 38.1666 37.4999 38.1665H25.8333V36.4998H28.2216L33.0966 35.1698C33.1289 35.1611 33.1609 35.1514 33.1925 35.1408C34.0739 34.845 34.5487 33.8908 34.2529 33.0094C33.9572 32.1281 33.003 31.6533 32.1216 31.949L23.5966 34.7907C23.5117 34.8189 23.4228 34.8333 23.3333 34.8332H11.1783L7.84498 38.1665L16.7566 47.0781L22.0158 43.3215C22.1571 43.2206 22.3263 43.1665 22.5 43.1665H38.8424ZM35 11H15V26.5H35V11Z" fill="black"/>
</svg>
